<?xml version="1.0" encoding="UTF-8" standalone="no"?>
<!-- Created with Inkscape (http://www.inkscape.org/) -->
<svg
   xmlns:dc="http://purl.org/dc/elements/1.1/"
   xmlns:cc="http://web.resource.org/cc/"
   xmlns:rdf="http://www.w3.org/1999/02/22-rdf-syntax-ns#"
   xmlns:svg="http://www.w3.org/2000/svg"
   xmlns="http://www.w3.org/2000/svg"
   xmlns:sodipodi="http://sodipodi.sourceforge.net/DTD/sodipodi-0.dtd"
   xmlns:inkscape="http://www.inkscape.org/namespaces/inkscape"
   width="328"
   height="204.30396"
   id="svg2"
   sodipodi:version="0.32"
   inkscape:version="0.45.1"
   sodipodi:docbase="/home/jim/Desktop"
   sodipodi:docname="two-shades.svg"
   inkscape:output_extension="org.inkscape.output.svg.inkscape"
   version="1.0"
   inkscape:export-filename="/home/jim/Desktop/two-shades.png"
   inkscape:export-xdpi="600"
   inkscape:export-ydpi="600">
  <defs
     id="defs4" />
  <sodipodi:namedview
     id="base"
     pagecolor="#ffffff"
     bordercolor="#666666"
     borderopacity="1.0"
     gridtolerance="10000"
     guidetolerance="10"
     objecttolerance="10"
     inkscape:pageopacity="0.0"
     inkscape:pageshadow="2"
     inkscape:zoom="1.979899"
     inkscape:cx="194.35785"
     inkscape:cy="80.839698"
     inkscape:document-units="px"
     inkscape:current-layer="layer1"
     inkscape:window-width="962"
     inkscape:window-height="850"
     inkscape:window-x="0"
     inkscape:window-y="0" />
  <metadata
     id="metadata7">
    <rdf:RDF>
      <cc:Work
         rdf:about="">
        <dc:format>image/svg+xml</dc:format>
        <dc:type
           rdf:resource="http://purl.org/dc/dcmitype/StillImage" />
      </cc:Work>
    </rdf:RDF>
  </metadata>
  <g
     inkscape:label="Layer 1"
     inkscape:groupmode="layer"
     id="layer1"
     transform="translate(-216.42857,-352.69605)">
    <path
       sodipodi:nodetypes="ccccc"
       id="path3271"
       d="M 415,389.15997 L 356.42857,556.93361 L 544.42857,556.93361 L 488.57143,385.93361 L 415,389.15997 z "
       style="fill:#337aff;fill-opacity:0.39215686;fill-rule:evenodd;stroke:none;stroke-width:1px;stroke-linecap:butt;stroke-linejoin:miter;stroke-opacity:1" />
    <path
       style="fill:#45bf89;fill-opacity:0.39215686;fill-rule:evenodd;stroke:none;stroke-width:1px;stroke-linecap:butt;stroke-linejoin:miter;stroke-opacity:1"
       d="M 275,389.15997 L 216.42857,556.93361 L 404.42857,556.93361 L 348.57143,385.93361 L 275,389.15997 z "
       id="path3269"
       sodipodi:nodetypes="ccccc" />
    <path
       style="fill:#0f2651;fill-opacity:1;fill-rule:evenodd;stroke:#000000;stroke-width:3.54330707;stroke-linecap:round;stroke-linejoin:round;stroke-miterlimit:4;stroke-dasharray:none;stroke-opacity:1"
       d="M 289.32143,356.6479 C 279.27067,379.45338 271.79336,400.5301 262.35714,428.43361 C 298.88286,434.11376 322.17857,433.96932 362,428.43361 C 353.01384,398.75678 346.35355,377.4891 338.07143,356.82647 C 322.17857,353.55266 305.14237,353.87055 289.32143,356.6479 z "
       id="path2221"
       sodipodi:nodetypes="ccccc" />
    <path
       style="fill:#669e85;fill-opacity:1;fill-rule:evenodd;stroke:none;stroke-width:1px;stroke-linecap:butt;stroke-linejoin:miter;stroke-opacity:1"
       d="M 313.02801,353.8417 C 311.47501,366.30908 305.90782,391.03142 303.90075,421.01684 L 361.01026,427.83537 L 338.7869,357.37723 L 313.02801,353.8417 z "
       id="path3195"
       sodipodi:nodetypes="ccccc" />
    <path
       style="fill:#78ab94;fill-opacity:1;fill-rule:evenodd;stroke:none;stroke-width:1px;stroke-linecap:butt;stroke-linejoin:miter;stroke-opacity:1"
       d="M 361.76787,427.83537 C 335.43938,420.86813 281.25539,417.86521 261.76277,428.34045 C 295.03834,432.92618 326.62939,432.72507 361.76787,427.83537 z "
       id="path3199"
       sodipodi:nodetypes="ccc" />
    <path
       style="fill:none;fill-rule:evenodd;stroke:#000000;stroke-width:2.12598419;stroke-linecap:round;stroke-linejoin:round;stroke-miterlimit:4;stroke-dasharray:none;stroke-opacity:1"
       d="M 360.27774,426.74216 C 326.56539,420.39281 296.37587,420.14028 271.35443,423.96424"
       id="path2223"
       sodipodi:nodetypes="cc" />
    <path
       sodipodi:nodetypes="ccccc"
       id="path3197"
       d="M 289.32143,356.6479 C 279.27067,379.45338 271.79336,400.5301 262.35714,428.43361 C 298.88286,434.11376 322.17857,433.96932 362,428.43361 C 353.01384,398.75678 346.35355,377.4891 338.07143,356.82647 C 322.17857,353.55266 305.14237,353.87055 289.32143,356.6479 z "
       style="fill:none;fill-opacity:1;fill-rule:evenodd;stroke:#000000;stroke-width:3.54330707;stroke-linecap:round;stroke-linejoin:round;stroke-miterlimit:4;stroke-dasharray:none;stroke-opacity:1" />
    <path
       style="fill:#000000;fill-opacity:1;stroke:none;stroke-width:3.54330707;stroke-linecap:round;stroke-linejoin:round;stroke-miterlimit:4;stroke-dasharray:none;stroke-opacity:1"
       d="M 307.59375,421.28125 L 307.59375,472.0625 C 306.88416,472.11013 307.14897,473.5625 306.25,473.5625 L 306.25,543.34375 C 298.96643,544.9751 289.41145,552.19651 275.5625,553.65625 C 274.72821,554.66435 274.72821,556.09617 275.5625,557 L 309.96875,557 L 310.34375,557 L 344.78125,557 C 345.61553,556.09616 345.61554,554.66436 344.78125,553.65625 C 330.95302,552.19868 321.39667,544.98345 314.125,543.34375 L 314.125,473.5625 C 313.20698,473.46722 313.5424,472.11013 312.6875,472.0625 L 312.6875,421.28125 L 307.59375,421.28125 z "
       id="rect3201"
       sodipodi:nodetypes="ccccccccccccccc" />
    <path
       sodipodi:nodetypes="ccccc"
       id="path3257"
       d="M 429.32143,356.6479 C 419.27067,379.45338 411.79336,400.5301 402.35714,428.43361 C 438.88286,434.11376 462.17857,433.96932 502,428.43361 C 493.01384,398.75678 486.35355,377.4891 478.07143,356.82647 C 462.17857,353.55266 445.14237,353.87055 429.32143,356.6479 z "
       style="fill:#0f2651;fill-opacity:1;fill-rule:evenodd;stroke:#000000;stroke-width:3.54330707;stroke-linecap:round;stroke-linejoin:round;stroke-miterlimit:4;stroke-dasharray:none;stroke-opacity:1" />
    <path
       sodipodi:nodetypes="ccccc"
       id="path3259"
       d="M 453.02801,353.8417 C 451.47501,366.30908 445.90782,391.03142 443.90075,421.01684 L 501.01026,427.83537 L 478.7869,357.37723 L 453.02801,353.8417 z "
       style="fill:#669e85;fill-opacity:1;fill-rule:evenodd;stroke:none;stroke-width:1px;stroke-linecap:butt;stroke-linejoin:miter;stroke-opacity:1" />
    <path
       sodipodi:nodetypes="ccc"
       id="path3261"
       d="M 501.76787,427.83537 C 475.43938,420.86813 421.25539,417.86521 401.76277,428.34045 C 435.03834,432.92618 466.62939,432.72507 501.76787,427.83537 z "
       style="fill:#5573ab;fill-opacity:1;fill-rule:evenodd;stroke:none;stroke-width:1px;stroke-linecap:butt;stroke-linejoin:miter;stroke-opacity:1" />
    <path
       sodipodi:nodetypes="cc"
       id="path3263"
       d="M 500.27774,426.74216 C 466.56539,420.39281 436.37587,420.14028 411.35443,423.96424"
       style="fill:none;fill-rule:evenodd;stroke:#000000;stroke-width:2.12598419;stroke-linecap:round;stroke-linejoin:round;stroke-miterlimit:4;stroke-dasharray:none;stroke-opacity:1" />
    <path
       style="fill:none;fill-opacity:1;fill-rule:evenodd;stroke:#000000;stroke-width:3.54330707;stroke-linecap:round;stroke-linejoin:round;stroke-miterlimit:4;stroke-dasharray:none;stroke-opacity:1"
       d="M 429.32143,356.6479 C 419.27067,379.45338 411.79336,400.5301 402.35714,428.43361 C 438.88286,434.11376 462.17857,433.96932 502,428.43361 C 493.01384,398.75678 486.35355,377.4891 478.07143,356.82647 C 462.17857,353.55266 445.14237,353.87055 429.32143,356.6479 z "
       id="path3265"
       sodipodi:nodetypes="ccccc" />
    <path
       sodipodi:nodetypes="ccccccccccccccc"
       id="path3267"
       d="M 447.59375,421.28125 L 447.59375,472.0625 C 446.88416,472.11013 447.14897,473.5625 446.25,473.5625 L 446.25,543.34375 C 438.96643,544.9751 429.41145,552.19651 415.5625,553.65625 C 414.72821,554.66435 414.72821,556.09617 415.5625,557 L 449.96875,557 L 450.34375,557 L 484.78125,557 C 485.61553,556.09616 485.61554,554.66436 484.78125,553.65625 C 470.95302,552.19868 461.39667,544.98345 454.125,543.34375 L 454.125,473.5625 C 453.20698,473.46722 453.5424,472.11013 452.6875,472.0625 L 452.6875,421.28125 L 447.59375,421.28125 z "
       style="fill:#000000;fill-opacity:1;stroke:none;stroke-width:3.54330707;stroke-linecap:round;stroke-linejoin:round;stroke-miterlimit:4;stroke-dasharray:none;stroke-opacity:1" />
  </g>
</svg>
