<?xml version="1.0" encoding="UTF-8" standalone="no"?>
<!-- Created with Inkscape (http://www.inkscape.org/) -->

<svg
   xmlns:dc="http://purl.org/dc/elements/1.1/"
   xmlns:cc="http://creativecommons.org/ns#"
   xmlns:rdf="http://www.w3.org/1999/02/22-rdf-syntax-ns#"
   xmlns:svg="http://www.w3.org/2000/svg"
   xmlns="http://www.w3.org/2000/svg"
   xmlns:xlink="http://www.w3.org/1999/xlink"
   xmlns:sodipodi="http://sodipodi.sourceforge.net/DTD/sodipodi-0.dtd"
   xmlns:inkscape="http://www.inkscape.org/namespaces/inkscape"
   width="885.82678"
   height="623.62207"
   id="svg2"
   version="1.1"
   inkscape:version="0.47pre4 r22446"
   sodipodi:docname="indy-summary.svg">
  <defs
     id="defs4">
    <linearGradient
       inkscape:collect="always"
       id="linearGradient4111">
      <stop
         style="stop-color:#669e85;stop-opacity:1;"
         offset="0"
         id="stop4113" />
      <stop
         style="stop-color:#53826d;stop-opacity:1"
         offset="1"
         id="stop4115" />
    </linearGradient>
    <linearGradient
       inkscape:collect="always"
       id="linearGradient4103">
      <stop
         style="stop-color:#183b7e;stop-opacity:1"
         offset="0"
         id="stop4105" />
      <stop
         style="stop-color:#0f2651;stop-opacity:1"
         offset="1"
         id="stop4107" />
    </linearGradient>
    <inkscape:perspective
       sodipodi:type="inkscape:persp3d"
       inkscape:vp_x="0 : 526.18109 : 1"
       inkscape:vp_y="0 : 1000 : 0"
       inkscape:vp_z="744.09448 : 526.18109 : 1"
       inkscape:persp3d-origin="372.04724 : 350.78739 : 1"
       id="perspective10" />
    <inkscape:perspective
       id="perspective2901"
       inkscape:persp3d-origin="164 : 68.101318 : 1"
       inkscape:vp_z="328 : 102.15198 : 1"
       inkscape:vp_y="0 : 1000 : 0"
       inkscape:vp_x="0 : 102.15198 : 1"
       sodipodi:type="inkscape:persp3d" />
    <inkscape:perspective
       id="perspective3758"
       inkscape:persp3d-origin="0.5 : 0.33333333 : 1"
       inkscape:vp_z="1 : 0.5 : 1"
       inkscape:vp_y="0 : 1000 : 0"
       inkscape:vp_x="0 : 0.5 : 1"
       sodipodi:type="inkscape:persp3d" />
    <inkscape:perspective
       id="perspective3913"
       inkscape:persp3d-origin="0.5 : 0.33333333 : 1"
       inkscape:vp_z="1 : 0.5 : 1"
       inkscape:vp_y="0 : 1000 : 0"
       inkscape:vp_x="0 : 0.5 : 1"
       sodipodi:type="inkscape:persp3d" />
    <inkscape:perspective
       id="perspective3947"
       inkscape:persp3d-origin="0.5 : 0.33333333 : 1"
       inkscape:vp_z="1 : 0.5 : 1"
       inkscape:vp_y="0 : 1000 : 0"
       inkscape:vp_x="0 : 0.5 : 1"
       sodipodi:type="inkscape:persp3d" />
    <inkscape:perspective
       id="perspective4073"
       inkscape:persp3d-origin="0.5 : 0.33333333 : 1"
       inkscape:vp_z="1 : 0.5 : 1"
       inkscape:vp_y="0 : 1000 : 0"
       inkscape:vp_x="0 : 0.5 : 1"
       sodipodi:type="inkscape:persp3d" />
    <linearGradient
       inkscape:collect="always"
       xlink:href="#linearGradient4103"
       id="linearGradient4109"
       x1="-140"
       y1="1003.957"
       x2="900"
       y2="1012.3622"
       gradientUnits="userSpaceOnUse" />
    <linearGradient
       inkscape:collect="always"
       xlink:href="#linearGradient4111"
       id="linearGradient4117"
       x1="900"
       y1="432.36218"
       x2="-20"
       y2="432.36218"
       gradientUnits="userSpaceOnUse"
       gradientTransform="scale(-1,1)" />
    <inkscape:perspective
       id="perspective4742"
       inkscape:persp3d-origin="0.5 : 0.33333333 : 1"
       inkscape:vp_z="1 : 0.5 : 1"
       inkscape:vp_y="0 : 1000 : 0"
       inkscape:vp_x="0 : 0.5 : 1"
       sodipodi:type="inkscape:persp3d" />
    <linearGradient
       inkscape:collect="always"
       xlink:href="#linearGradient4103"
       id="linearGradient2920"
       gradientUnits="userSpaceOnUse"
       x1="-140"
       y1="1003.957"
       x2="900"
       y2="1012.3622"
       gradientTransform="translate(0,-428.74011)" />
    <linearGradient
       inkscape:collect="always"
       xlink:href="#linearGradient4111"
       id="linearGradient2923"
       gradientUnits="userSpaceOnUse"
       gradientTransform="matrix(-1,0,0,1,0,-428.74011)"
       x1="900"
       y1="432.36218"
       x2="-20"
       y2="432.36218" />
  </defs>
  <sodipodi:namedview
     id="base"
     pagecolor="#ffffff"
     bordercolor="#666666"
     borderopacity="1.0"
     inkscape:pageopacity="0.0"
     inkscape:pageshadow="2"
     inkscape:zoom="0.7"
     inkscape:cx="436.79815"
     inkscape:cy="313.45864"
     inkscape:document-units="px"
     inkscape:current-layer="layer3"
     showgrid="false"
     borderlayer="true"
     inkscape:window-width="1278"
     inkscape:window-height="774"
     inkscape:window-x="1280"
     inkscape:window-y="16"
     inkscape:window-maximized="0"
     showguides="false"
     inkscape:guide-bbox="true">
    <inkscape:grid
       type="xygrid"
       id="grid2816"
       empspacing="5"
       visible="true"
       enabled="true"
       snapvisiblegridlinesonly="true" />
    <sodipodi:guide
       orientation="1,0"
       position="280,500"
       id="guide3972" />
    <sodipodi:guide
       orientation="1,0"
       position="600,440"
       id="guide3974" />
    <sodipodi:guide
       orientation="0,1"
       position="400,200"
       id="guide3976" />
    <sodipodi:guide
       orientation="0,1"
       position="720,400"
       id="guide3978" />
  </sodipodi:namedview>
  <metadata
     id="metadata7">
    <rdf:RDF>
      <cc:Work
         rdf:about="">
        <dc:format>image/svg+xml</dc:format>
        <dc:type
           rdf:resource="http://purl.org/dc/dcmitype/StillImage" />
        <dc:title />
      </cc:Work>
    </rdf:RDF>
  </metadata>
  <g
     inkscape:groupmode="layer"
     id="layer4"
     inkscape:label="Watermark">
    <path
       style="fill:#679e86;fill-opacity:0.32941386"
       d="m -15.373323,661.42547 c 2.797238,-1.53821 3.506521,-2.14014 5.108028,-4.33495 0.948338,-1.29965 2.0596684,-2.56619 2.4695975,-2.81448 0.409963,-0.24831 1.8447127,-1.91464 3.1883438,-3.70289 1.3436307,-1.78825 2.8200697,-3.49851 3.2809407,-3.80051 0.460906,-0.3019 0.927581,-0.89689 1.037099,-1.32204 0.109484,-0.42524 1.110417,-1.723 2.224281,-2.88396 1.113864,-1.16097 2.549774,-2.90247 3.190912,-3.8699 0.641138,-0.96752 2.504919,-3.04957 4.141784,-4.62686 1.636829,-1.57729 2.976061,-3.115 2.976061,-3.41715 0,-0.30208 0.647436,-1.30718 1.438726,-2.2334 1.630004,-1.90802 3.147464,-4.31148 5.237846,-8.29611 0.791184,-1.50815 1.657761,-2.82614 1.925734,-2.92898 0.481628,-0.18486 2.32138,-3.75112 3.517321,-6.81821 0.339532,-0.87071 1.288398,-3.00794 2.108606,-4.74936 2.617146,-5.55671 2.658624,-5.68879 2.658624,-8.46421 0,-2.32698 0.149204,-2.93287 1.275029,-5.17724 0.701262,-1.39795 1.888619,-3.21114 2.638571,-4.02916 1.101833,-1.20185 1.363544,-1.75371 1.363544,-2.87544 0,-0.94298 0.266144,-1.70697 0.830023,-2.38257 0.456509,-0.54699 1.093425,-1.50823 1.415366,-2.13609 0.557336,-1.08704 3.79796,-3.9596 4.466891,-3.9596 0.17411,0 1.540538,-1.28116 3.036538,-2.84704 1.495999,-1.5658 3.343351,-3.16497 4.105264,-3.5537 0.76188,-0.38864 2.507945,-1.85185 3.880109,-3.25153 1.372161,-1.39969 3.405656,-3.20958 4.518851,-4.02205 2.401452,-1.75282 6.243529,-5.53069 6.243529,-6.13931 0,-0.23607 0.721033,-1.37606 1.602282,-2.53323 0.881248,-1.15717 2.946158,-4.76762 4.588687,-8.02312 3.422649,-6.78384 4.591924,-8.49395 9.665471,-14.13613 2.95742,-3.28884 4.82342,-4.93782 9.621298,-8.50231 3.27376,-2.43221 6.48191,-4.64347 7.1292,-4.91391 4.24486,-1.77361 12.035756,-10.09706 15.101346,-16.1336 1.67778,-3.30373 2.42464,-4.61792 3.51155,-6.17878 0.59783,-0.85856 1.60574,-2.66922 2.2398,-4.02369 0.63403,-1.35446 1.60929,-2.98267 2.16726,-3.6183 0.55793,-0.63557 1.01443,-1.37609 1.01443,-1.64555 0,-0.26944 0.43534,-0.83235 0.96738,-1.25086 0.73123,-0.5752 1.26398,-0.71279 2.18266,-0.56373 0.77292,0.12545 1.41329,0.0239 1.75915,-0.27839 1.07826,-0.94303 2.00186,-0.97032 3.05441,-0.0903 1.39212,1.16393 2.32508,1.38911 3.94635,0.95255 1.89208,-0.50949 3.04995,-0.0278 3.50705,1.45949 1.44682,4.70672 1.8494,12.31136 0.7508,14.18214 -1.38036,2.35055 -1.45005,3.55511 -0.46805,8.08984 2.16782,10.01055 4.20237,17.09688 6.71753,23.39708 5.02524,12.58761 5.14943,12.84385 7.79187,16.07837 1.39074,1.70242 3.01261,4.06789 3.60419,5.25662 1.58655,3.18834 9.74223,11.12027 13.95114,13.56843 1.6896,0.98271 3.41322,2.09395 3.83026,2.46946 0.41703,0.37542 1.92102,1.30561 3.34219,2.06703 5.37353,2.87893 7.60706,3.78928 9.8589,4.01808 3.14275,0.31934 4.28096,0.7383 5.1316,1.88895 0.58467,0.79074 1.58602,1.28198 4.70728,2.30896 3.76383,1.23846 4.2149,1.30676 8.90503,1.35005 4.92232,0.0455 4.95596,0.0405 9.21055,-1.41133 4.50466,-1.53698 7.25644,-2.9109 10.154,-5.06961 0.96748,-0.72079 2.62978,-1.63808 3.694,-2.03837 1.06422,-0.40028 2.35141,-1.00585 2.8604,-1.34558 0.50899,-0.33982 1.81508,-1.20954 2.90243,-1.93281 1.08734,-0.72317 1.97698,-1.46898 1.97698,-1.6574 0,-0.18833 1.23378,-1.57555 2.74174,-3.0827 1.50795,-1.50707 3.20983,-3.44054 3.78195,-4.29645 0.63482,-0.94968 1.45154,-1.68698 2.09565,-1.89176 0.58049,-0.18461 1.38226,-0.63206 1.78172,-0.99444 0.39945,-0.36229 0.97136,-0.65883 1.27092,-0.65883 0.29953,0 1.14227,-0.47488 1.87268,-1.0554 0.73047,-0.58044 1.52816,-1.0554 1.77267,-1.0554 0.70415,0 1.91057,-2.34533 3.16695,-6.15666 1.00653,-3.05346 1.17322,-4.07574 1.26194,-7.73987 0.12145,-5.01509 -0.26737,-9.9419 -0.95889,-12.14999 -0.84846,-2.7094 -1.55841,-6.68163 -1.88398,-10.54169 -0.25274,-2.99622 -0.67367,-4.7919 -2.22849,-9.50614 -1.9147,-5.80535 -3.32605,-8.69582 -5.2561,-10.76452 -0.89358,-0.95778 -1.17214,-1.82858 -2.19448,-6.8603 -1.22501,-6.02914 -1.82813,-7.78877 -3.65698,-10.6695 -0.60754,-0.95696 -1.10463,-2.13042 -1.10463,-2.60765 0,-1.37371 -1.63301,-3.79936 -3.35584,-4.98472 -0.86915,-0.598 -1.80482,-1.43418 -2.07926,-1.85821 -0.80259,-1.24006 -1.71162,-6.85617 -1.4345,-8.86258 0.13361,-0.96748 0.30643,-3.61488 0.38403,-5.88314 l 0.1411,-4.12412 -2.06658,0.0783 c -1.61335,0.0611 -2.22932,-0.0687 -2.80854,-0.59193 -0.97406,-0.87987 -0.94023,-1.82223 0.0896,-2.49704 0.62715,-0.41091 0.88327,-0.98108 1.04174,-2.31912 0.38295,-3.23337 1.95309,-4.89201 4.63107,-4.89201 0.74756,0 1.56607,-0.32367 2.22881,-0.88133 0.57605,-0.48472 1.53019,-0.97784 2.12028,-1.09588 1.44835,-0.28965 4.2551,-3.56003 6.02414,-7.0192 1.33626,-2.61292 4.47883,-10.30573 5.23536,-12.81579 1.44319,-4.78846 3.15942,-14.66678 3.30058,-18.99771 0.11008,-3.37714 -0.47819,-13.13446 -0.81775,-13.56411 -0.16137,-0.20421 -0.39723,-2.34145 -0.52409,-4.74943 -0.1269,-2.408 -0.42369,-4.69479 -0.65957,-5.08179 -0.7368,-1.20877 -0.87032,-2.26636 -0.32473,-2.5717 0.42991,-0.2406 0.45335,-1.0723 0.15554,-5.51898 -0.24321,-3.63085 -0.23751,-5.37206 0.0186,-5.68056 1.38725,-1.67156 1.57266,-2.7191 1.45745,-8.23593 -0.0625,-2.98868 -0.25743,-6.33925 -0.43333,-7.44569 -0.19901,-1.25171 -0.19192,-2.4479 0.0186,-3.16629 0.18624,-0.63501 0.30617,-2.44454 0.26652,-4.02116 -0.052,-2.07014 0.0768,-3.09649 0.46369,-3.694 0.32778,-0.50616 0.47656,-1.31978 0.38322,-2.09557 -0.22301,-1.85384 1.05076,-2.77764 3.82984,-2.77764 1.13489,0 2.06026,-0.11873 2.05643,-0.26387 -0.004,-0.14512 -0.81433,-0.73879 -1.80112,-1.31928 -0.98679,-0.58048 -2.18935,-1.56933 -2.67232,-2.19744 -0.78104,-1.01573 -0.85172,-1.35332 -0.63933,-3.05323 0.20468,-1.63832 0.10543,-2.19312 -0.69515,-3.88539 -1.52889,-3.23184 -1.01775,-3.50081 3.93985,-2.07308 2.08577,0.60067 2.24989,0.60019 4.19304,-0.0123 2.83449,-0.89349 6.88474,-0.54165 11.81727,1.02656 2.15928,0.68649 4.4034,1.17506 5.27715,1.14891 1.83353,-0.0548 5.10043,0.60519 7.50784,1.51694 2.13674,0.80925 3.05654,0.82124 8.26073,0.10767 2.22519,-0.3051 5.10559,-0.63767 6.40092,-0.73903 1.69544,-0.13266 2.52367,-0.37055 2.95692,-0.84931 0.33102,-0.36576 1.00418,-0.66503 1.4959,-0.66503 0.49172,0 1.47332,-0.40143 2.1813,-0.89206 1.26742,-0.87832 1.29078,-0.93778 1.51509,-3.85602 0.19877,-2.58595 0.11641,-3.30525 -0.64575,-5.64005 -0.48046,-1.47185 -1.1933,-3.08259 -1.58412,-3.57943 -0.39083,-0.49683 -0.71559,-1.15903 -0.72167,-1.47154 -0.0102,-0.5263 -2.40515,-2.28068 -4.0347,-2.95569 -0.38698,-0.1603 -1.0994,-0.65778 -1.58313,-1.1055 -0.48374,-0.44772 -1.30553,-0.91424 -1.82622,-1.03673 -0.57062,-0.13424 -1.40209,-0.85685 -2.09308,-1.81905 -1.17022,-1.62949 -2.94293,-2.97422 -3.92078,-2.97422 -0.29971,0 -1.61061,-0.56535 -2.91312,-1.25636 -1.30254,-0.69099 -3.57168,-1.55628 -5.04253,-1.92286 -1.47084,-0.36657 -3.62416,-1.04985 -4.78513,-1.51837 -1.16098,-0.46853 -2.82328,-0.96763 -3.694,-1.10912 -0.87073,-0.14148 -2.02372,-0.48276 -2.5622,-0.75839 -1.25381,-0.64177 -4.94275,-1.76582 -6.76075,-2.06006 -1.62762,-0.26344 -8.72063,-1.89454 -14.65955,-3.37111 -2.25792,-0.56138 -4.86187,-1.02068 -5.78661,-1.02068 -2.52978,0 -7.39085,-0.67499 -10.16129,-1.41096 -7.69983,-2.04546 -9.70928,-2.12746 -13.2933,-0.54244 -2.72054,1.20315 -2.93738,1.16498 -3.16844,-0.55766 -0.19616,-1.46252 -1.0701,-2.76608 -1.53964,-2.29654 -0.13848,0.13847 -0.0631,0.77355 0.16752,1.41128 0.23061,0.63773 0.41929,1.42924 0.41929,1.75891 0,0.84952 -1.49827,1.33992 -2.75514,0.90176 -1.04345,-0.36375 -1.4736,-1.11725 -2.89376,-5.0692 -0.77749,-2.16356 -1.56172,-2.46306 -1.88848,-0.72124 -0.26267,1.40011 -0.42445,1.47662 -1.51193,0.71491 -1.29554,-0.90743 -2.36028,-2.71821 -2.57715,-4.3829 l -0.2072,-1.59156 -0.2587,1.40725 c -0.50168,2.72907 -1.42853,3.30493 -2.75424,1.71125 -2.1309,-2.56158 -3.94379,-4.3498 -4.40983,-4.3498 -1.01064,0 -2.94706,-1.16618 -3.43781,-2.07036 -1.03594,-1.90872 -1.04217,-1.91256 -2.34206,-1.44251 -1.08638,0.39286 -1.38234,0.34121 -3.12174,-0.54471 -1.14169,-0.58149 -2.6109,-1.01553 -3.6201,-1.06944 -0.93419,-0.0499 -1.96323,-0.32031 -2.28676,-0.60091 -0.32352,-0.28058 -0.98401,-0.60515 -1.46774,-0.72127 -1.20653,-0.28962 -8.09092,-5.60332 -8.09145,-6.24537 -1.1e-4,-0.11292 -0.63473,-0.89267 -1.41033,-1.73279 -0.77557,-0.8401 -1.9003,-2.29128 -2.49933,-3.22482 -1.5138,-2.35904 -2.45567,-2.13394 -1.19393,0.28534 0.71311,1.3673 0.66974,1.72643 -0.32181,2.66454 -0.46843,0.4432 -0.90379,1.2016 -0.96747,1.68534 -0.21197,1.61007 -1.54153,1.34597 -3.39985,-0.67538 -0.90373,-0.983 -1.83058,-1.78729 -2.05968,-1.78729 -0.22909,0 -0.46614,0.49856 -0.52676,1.1079 -0.15697,1.57752 -1.03555,2.02732 -2.47973,1.26956 -0.63175,-0.33149 -2.08211,-0.64582 -3.22306,-0.69851 -2.0113,-0.0929 -2.22418,-0.21132 -2.90616,-1.61694 -0.0303,-0.0626 -0.53703,0.13525 -1.1259,0.43977 -0.58886,0.3045 -1.44977,0.55365 -1.91311,0.55365 -0.85235,0 -2.00696,-0.96288 -2.00696,-1.67367 0,-0.7285 -1.10531,-1.49262 -2.15912,-1.49262 -1.47894,0 -2.4144,0.59093 -2.4144,1.52517 0,0.80395 -0.58637,1.64112 -1.1495,1.64112 -0.16786,0 -0.21707,-0.27759 -0.10938,-0.61685 0.22941,-0.72282 -0.95685,-2.82856 -1.76904,-3.14022 -0.81631,-0.31326 -1.10792,0.40975 -0.92653,2.29731 0.10916,1.1362 0.009,1.78854 -0.31786,2.05938 -0.27332,0.22682 -2.43417,0.46955 -5.05089,0.56739 -2.5153,0.094 -5.52316,0.36985 -6.68413,0.6129 -1.16098,0.24307 -3.13991,0.45668 -4.39762,0.47472 -1.68767,0.0242 -2.56326,0.22164 -3.3422,0.7536 -1.82043,1.24323 -17.682856,7.89787 -18.825876,7.89787 -0.2043,0 -0.69076,0.54111 -1.08094,1.20249 -0.39023,0.66137 -1.06834,1.43761 -1.50691,1.72498 -1.08656,0.71193 -5.49871,1.99786 -6.85487,1.99786 -0.83414,0 -1.49255,0.38363 -2.69813,1.57215 -1.706067,1.68192 -3.113058,2.234 -6.223646,2.44208 -1.02328,0.0684 -2.13753,0.14312 -2.476147,0.16596 -0.458797,0.031 -0.615666,0.34942 -0.615666,1.24995 0,1.77597 -0.56455,2.97248 -1.482735,3.14261 -0.442227,0.082 -1.811014,0.33366 -3.041744,0.55937 -1.230772,0.22572 -2.972228,0.77927 -3.869905,1.23011 -0.897713,0.45084 -2.3446,1.05722 -3.215328,1.34749 -6.157723,2.05276 -8.403217,3.30333 -11.584138,6.45141 -1.57375,1.55752 -2.247254,2.5455 -2.728635,4.00287 -0.686205,2.07744 -1.445514,2.50263 -2.041832,1.14338 -0.553291,-1.26114 -1.38328,-0.93668 -3.149715,1.23133 -0.906544,1.1126 -6.043139,6.61402 -11.414672,12.22538 -5.371532,5.61137 -11.143918,11.73058 -12.827538,13.59825 -1.683655,1.86767 -3.279392,3.47952 -3.54617,3.58189 -0.266742,0.10235 -1.436051,1.4239 -2.5985,2.93679 -3.561016,4.63456 -8.564944,9.26532 -12.78314,11.82987 -2.060443,1.25269 -5.54399,3.83851 -7.7412166,5.74627 -2.1971915,1.90776 -4.4917631,3.86443 -5.0990574,4.34818 -1.053317,0.83903 -2.938594,4.04721 -2.939192,5.00158 0,0.76215 -1.971295,4.63756 -2.676673,5.26339 -0.365882,0.32461 -2.460836,1.23063 -4.65546,2.01337 -4.354417,1.55305 -8.742888,3.96416 -11.277254,6.19598 -0.890642,0.78432 -3.162944,2.58471 -5.049522,4.00084 l -3.430143,2.5748 0,3.32392 c 0,2.16461 0.172175,3.65687 0.493659,4.27854 0.271527,0.52507 0.598323,1.74414 0.72624,2.70906 0.443281,3.34358 0.544495,3.61444 1.434046,3.83769 0.485181,0.12178 0.938347,0.55345 1.050186,1.00042 0.3662,1.4632 -0.06393,22.17583 -0.498478,24.00565 -0.229767,0.96747 -0.542173,3.10471 -0.694225,4.74942 -0.152053,1.6447 -0.541823,3.49706 -0.866227,4.1163 -0.477651,0.91187 -0.589034,2.14918 -0.585973,6.50849 0.0043,5.84844 0.257067,7.17079 2.051471,10.72547 0.587523,1.16386 1.406887,3.1215 1.820861,4.35027 0.413939,1.2288 0.951258,2.63761 1.194007,3.13075 0.242749,0.49316 0.638991,1.8465 0.880474,3.00748 0.241516,1.16098 0.598744,2.76086 0.793858,3.55536 0.195112,0.79445 0.29858,3.24832 0.229942,5.45304 -0.131506,4.22386 -0.636177,5.89981 -3.325761,11.04474 -2.787598,5.33237 -4.11086,7.78154 -4.392834,8.13035 -0.184946,0.22879 -0.278352,34.25239 -0.225511,82.14757 L -40,643.62207 l 0.967476,1.84053 c 0.532111,1.01229 0.967475,2.05133 0.967475,2.30889 0,0.25763 0.474944,0.92341 1.055429,1.47956 0.580487,0.55616 1.058737,1.33773 1.062818,1.73687 0.007,0.67948 1.584303,3.27682 3.785189,6.23256 0.526271,0.70683 1.849779,2.09206 2.941127,3.07841 l 1.984276,1.7932 5.403724,-0.0429 c 4.300625,-0.0347 5.619172,-0.16157 6.459152,-0.62349 z M 189.7109,476.85315 c 0.37559,-0.28408 1.24632,-0.51089 1.93496,-0.50404 l 1.25206,0.0123 -0.87953,0.50277 c -0.48374,0.27652 -1.35447,0.50334 -1.93495,0.50404 -1.00347,0 -1.02184,-0.0243 -0.37254,-0.51523 z m 9.34368,-2.06962 c 1.69704,-0.61756 3.8699,-0.92994 3.8699,-0.55635 0,0.35863 -2.50578,0.97275 -4.0458,0.99157 l -1.05543,0.013 1.23133,-0.44809 z m -9.85067,-0.34421 c 0,-0.63906 0.80899,-0.9386 1.43914,-0.53282 0.42267,0.27216 0.41797,0.37039 -0.032,0.6657 -0.7577,0.49739 -1.40724,0.43606 -1.40724,-0.13288 z m 17.97161,-1.39539 c 0.4202,-0.36239 2.08153,-0.54762 2.08153,-0.23208 0,0.19715 -0.50132,0.35848 -1.11406,0.35848 -0.61274,0 -1.0481,-0.0569 -0.96747,-0.1264 z m 7.45396,-1.49338 c 0.1169,-0.11688 0.42034,-0.12941 0.6743,-0.0278 0.28065,0.11232 0.19729,0.19567 -0.21255,0.21256 -0.37086,0.0151 -0.57865,-0.0679 -0.46175,-0.18477 z m 2.36739,-0.45114 c 0,-0.17154 0.47494,-0.38157 1.05542,-0.46677 1.01545,-0.14904 1.3153,0.0497 0.82089,0.5441 -0.34753,0.34756 -1.87631,0.28455 -1.87631,-0.0773 z m 9.27254,-12.18183 c -0.28736,-0.74886 0.50728,-1.57867 1.51177,-1.57867 1.10435,0 1.49807,1.00615 0.63942,1.63402 -0.8644,0.63206 -1.8976,0.60547 -2.15119,-0.0554 z m -7.5102,-43.92722 c -1.56765,-1.06757 -3.72811,-2.2695 -4.80104,-2.67093 -3.89443,-1.45709 -7.64751,-5.146 -10.39501,-10.21726 -2.8947,-5.34294 -3.09171,-6.50249 -3.34766,-19.70347 -0.22559,-11.63543 -0.1047,-12.97067 1.28839,-14.23142 0.58753,-0.53171 0.89923,-0.55204 2.71329,-0.177 2.33248,0.48222 5.45194,1.95575 7.1306,3.36825 1.50376,1.26534 1.30202,2.28221 -1.10486,5.56896 -3.05865,4.1768 -3.78554,5.89618 -4.23293,10.01256 -0.47774,4.39569 -0.17922,5.83444 1.84196,8.87738 1.662,2.5022 3.15449,3.85049 4.88537,4.41335 1.82398,0.59316 5.812,0.56257 7.29226,-0.0559 2.96744,-1.23988 5.83047,-4.54733 7.62979,-8.81413 1.0307,-2.44416 1.72629,-3.0518 2.55027,-2.22781 0.42005,0.42004 0.61011,1.56668 0.7571,4.56756 0.17545,3.58214 0.0968,4.39149 -0.74259,7.63779 -1.10341,4.26762 -2.19331,7.27411 -4.04018,11.14494 -0.73856,1.54796 -1.5303,3.26963 -1.7594,3.82596 -0.37173,0.90267 -0.54551,0.99055 -1.61581,0.81686 -0.6596,-0.10706 -2.4819,-1.06809 -4.04955,-2.13567 z m 0.43646,-28.62756 c -0.62122,-0.81325 -0.54463,-2.52042 0.17645,-3.93296 0.97572,-1.91139 1.56047,-2.07928 3.22477,-0.92593 1.23617,0.85668 1.43508,1.17233 1.42834,2.26671 -0.0171,2.7805 -3.32818,4.55766 -4.82956,2.59218 z M 138.1054,250.38696 c 0.96773,-1.20959 0.67428,-3.45539 -0.32141,-2.45973 -0.74647,0.74648 -1.27907,0.49115 -2.20777,-1.05837 -0.68118,-1.13655 -0.89694,-1.31605 -0.89944,-0.74834 -0.005,1.14123 1.34958,3.94876 2.09878,4.34972 0.84425,0.45183 0.90476,0.44804 1.32984,-0.0833 z"
       id="path4748" />
  </g>
  <g
     inkscape:groupmode="layer"
     id="layer3"
     inkscape:label="Background">
    <rect
       style="fill:url(#linearGradient2923);fill-opacity:1;stroke:none"
       id="rect2820"
       width="940"
       height="40"
       x="-920"
       y="-16.377928"
       transform="scale(-1,1)" />
    <path
       style="fill:url(#linearGradient2920);fill-opacity:1;stroke:none"
       d="m -140,584.27599 c 160,-0.6539 180.64518,19.3461 320,19.3461 120,0 284.64387,-18.5194 424,-80.00002 136,-60 256,-80 416,-40 l 0,200.00002 -1160,4 0,-103.3461 z"
       id="path2919"
       sodipodi:nodetypes="cszcccc" />
    <g
       transform="matrix(0.39410666,0,0,0.39410666,658.50692,349.7329)"
       id="layer1-3"
       inkscape:label="Layer 1">
      <path
         style="fill:#337aff;fill-opacity:0.39215686;fill-rule:evenodd;stroke:none"
         d="m 415,389.15997 -58.57143,167.77364 188,0 -55.85714,-171 L 415,389.15997 z"
         id="path3271"
         sodipodi:nodetypes="ccccc" />
      <path
         sodipodi:nodetypes="ccccc"
         id="path3269"
         d="m 275,389.15997 -58.57143,167.77364 188,0 -55.85714,-171 L 275,389.15997 z"
         style="fill:#45bf89;fill-opacity:0.39215686;fill-rule:evenodd;stroke:none" />
      <path
         sodipodi:nodetypes="ccccc"
         id="path2221"
         d="m 289.32143,356.6479 c -10.05076,22.80548 -17.52807,43.8822 -26.96429,71.78571 36.52572,5.68015 59.82143,5.53571 99.64286,0 -8.98616,-29.67683 -15.64645,-50.94451 -23.92857,-71.60714 -15.89286,-3.27381 -32.92906,-2.95592 -48.75,-0.17857 z"
         style="fill:#0f2651;fill-opacity:1;fill-rule:evenodd;stroke:#000000;stroke-width:8.99073124;stroke-linecap:round;stroke-linejoin:round;stroke-miterlimit:4;stroke-opacity:1;stroke-dasharray:none" />
      <path
         sodipodi:nodetypes="ccccc"
         id="path3195"
         d="m 313.02801,353.8417 c -1.553,12.46738 -7.12019,37.18972 -9.12726,67.17514 l 57.10951,6.81853 -22.22336,-70.45814 -25.75889,-3.53553 z"
         style="fill:#669e85;fill-opacity:1;fill-rule:evenodd;stroke:none" />
      <path
         sodipodi:nodetypes="ccc"
         id="path3199"
         d="m 361.76787,427.83537 c -26.32849,-6.96724 -80.51248,-9.97016 -100.0051,0.50508 33.27557,4.58573 64.86662,4.38462 100.0051,-0.50508 z"
         style="fill:#78ab94;fill-opacity:1;fill-rule:evenodd;stroke:none" />
      <path
         sodipodi:nodetypes="cc"
         id="path2223"
         d="m 360.27774,426.74216 c -33.71235,-6.34935 -63.90187,-6.60188 -88.92331,-2.77792"
         style="fill:none;stroke:#000000;stroke-width:5.39443874;stroke-linecap:round;stroke-linejoin:round;stroke-miterlimit:4;stroke-opacity:1;stroke-dasharray:none" />
      <path
         style="fill:none;stroke:#000000;stroke-width:8.99073124;stroke-linecap:round;stroke-linejoin:round;stroke-miterlimit:4;stroke-opacity:1;stroke-dasharray:none"
         d="m 289.32143,356.6479 c -10.05076,22.80548 -17.52807,43.8822 -26.96429,71.78571 36.52572,5.68015 59.82143,5.53571 99.64286,0 -8.98616,-29.67683 -15.64645,-50.94451 -23.92857,-71.60714 -15.89286,-3.27381 -32.92906,-2.95592 -48.75,-0.17857 z"
         id="path3197"
         sodipodi:nodetypes="ccccc" />
      <path
         sodipodi:nodetypes="ccccccccccccccc"
         id="rect3201"
         d="m 307.59375,421.28125 0,50.78125 c -0.70959,0.0476 -0.44478,1.5 -1.34375,1.5 l 0,69.78125 c -7.28357,1.63135 -16.83855,8.85276 -30.6875,10.3125 -0.83429,1.0081 -0.83429,2.43992 0,3.34375 l 34.40625,0 0.375,0 34.4375,0 c 0.83428,-0.90384 0.83429,-2.33564 0,-3.34375 -13.82823,-1.45757 -23.38458,-8.6728 -30.65625,-10.3125 l 0,-69.78125 c -0.91802,-0.0953 -0.5826,-1.45237 -1.4375,-1.5 l 0,-50.78125 -5.09375,0 z"
         style="fill:#000000;fill-opacity:1;stroke:none" />
      <path
         style="fill:#0f2651;fill-opacity:1;fill-rule:evenodd;stroke:#000000;stroke-width:8.99073124;stroke-linecap:round;stroke-linejoin:round;stroke-miterlimit:4;stroke-opacity:1;stroke-dasharray:none"
         d="m 429.32143,356.6479 c -10.05076,22.80548 -17.52807,43.8822 -26.96429,71.78571 36.52572,5.68015 59.82143,5.53571 99.64286,0 -8.98616,-29.67683 -15.64645,-50.94451 -23.92857,-71.60714 -15.89286,-3.27381 -32.92906,-2.95592 -48.75,-0.17857 z"
         id="path3257"
         sodipodi:nodetypes="ccccc" />
      <path
         style="fill:#669e85;fill-opacity:1;fill-rule:evenodd;stroke:none"
         d="m 453.02801,353.8417 c -1.553,12.46738 -7.12019,37.18972 -9.12726,67.17514 l 57.10951,6.81853 -22.22336,-70.45814 -25.75889,-3.53553 z"
         id="path3259"
         sodipodi:nodetypes="ccccc" />
      <path
         style="fill:#5573ab;fill-opacity:1;fill-rule:evenodd;stroke:none"
         d="m 501.76787,427.83537 c -26.32849,-6.96724 -80.51248,-9.97016 -100.0051,0.50508 33.27557,4.58573 64.86662,4.38462 100.0051,-0.50508 z"
         id="path3261"
         sodipodi:nodetypes="ccc" />
      <path
         style="fill:none;stroke:#000000;stroke-width:5.39443874;stroke-linecap:round;stroke-linejoin:round;stroke-miterlimit:4;stroke-opacity:1;stroke-dasharray:none"
         d="m 500.27774,426.74216 c -33.71235,-6.34935 -63.90187,-6.60188 -88.92331,-2.77792"
         id="path3263"
         sodipodi:nodetypes="cc" />
      <path
         sodipodi:nodetypes="ccccc"
         id="path3265"
         d="m 429.32143,356.6479 c -10.05076,22.80548 -17.52807,43.8822 -26.96429,71.78571 36.52572,5.68015 59.82143,5.53571 99.64286,0 -8.98616,-29.67683 -15.64645,-50.94451 -23.92857,-71.60714 -15.89286,-3.27381 -32.92906,-2.95592 -48.75,-0.17857 z"
         style="fill:none;stroke:#000000;stroke-width:8.99073124;stroke-linecap:round;stroke-linejoin:round;stroke-miterlimit:4;stroke-opacity:1;stroke-dasharray:none" />
      <path
         style="fill:#000000;fill-opacity:1;stroke:none"
         d="m 447.59375,421.28125 0,50.78125 c -0.70959,0.0476 -0.44478,1.5 -1.34375,1.5 l 0,69.78125 c -7.28357,1.63135 -16.83855,8.85276 -30.6875,10.3125 -0.83429,1.0081 -0.83429,2.43992 0,3.34375 l 34.40625,0 0.375,0 34.4375,0 c 0.83428,-0.90384 0.83429,-2.33564 0,-3.34375 -13.82823,-1.45757 -23.38458,-8.6728 -30.65625,-10.3125 l 0,-69.78125 c -0.91802,-0.0953 -0.5826,-1.45237 -1.4375,-1.5 l 0,-50.78125 -5.09375,0 z"
         id="path3267"
         sodipodi:nodetypes="ccccccccccccccc" />
    </g>
    <text
       xml:space="preserve"
       style="font-size:12.20965099px;font-weight:normal;text-align:end;text-anchor:end;opacity:0.6;fill:#aaccee;fill-opacity:1;stroke:none;-inkscape-font-specification:Andale Mono"
       x="874.0658"
       y="569.33752"
       id="text3765"
       transform="scale(1.0000936,0.9999064)"><tspan
         sodipodi:role="line"
         id="tspan3767"
         x="874.0658"
         y="569.33752"
         style="font-weight:normal;fill:#aaccee;fill-opacity:1;stroke:none;-inkscape-font-specification:Andale Mono" /><tspan
         sodipodi:role="line"
         x="874.0658"
         y="584.59961"
         style="font-weight:normal;fill:#aaccee;fill-opacity:1;stroke:none;-inkscape-font-specification:Andale Mono"
         id="tspan3785">e: info@twoshadesofblue.org.uk</tspan><tspan
         sodipodi:role="line"
         x="874.0658"
         y="599.86163"
         style="font-weight:normal;fill:#aaccee;fill-opacity:1;stroke:none;-inkscape-font-specification:Andale Mono"
         id="tspan3781">w: twoshadesofblue.org.uk</tspan><tspan
         sodipodi:role="line"
         x="874.0658"
         y="615.12372"
         id="tspan3771"
         style="font-weight:normal;fill:#aaccee;fill-opacity:1;stroke:none;-inkscape-font-specification:Andale Mono">t: 07975 615554</tspan></text>
  </g>
  <g
     inkscape:label="Layer 1"
     inkscape:groupmode="layer"
     id="layer1"
     transform="translate(0,-428.74011)">
    <text
       transform="scale(0.96536055,1.0358824)"
       id="text3835"
       y="528.57104"
       x="38.30917"
       style="font-size:97.13755798px;font-style:italic;font-variant:normal;font-weight:normal;font-stretch:semi-expanded;text-align:start;line-height:125%;writing-mode:lr-tb;text-anchor:start;fill:#0f2651;fill-opacity:1;stroke:none;font-family:Myriad Pro;-inkscape-font-specification:Myriad Pro Italic Semi-Expanded"
       xml:space="preserve"
       sodipodi:linespacing="125%"><tspan
         style="font-size:97.13755798px;font-style:italic;font-variant:normal;font-weight:normal;font-stretch:semi-expanded;text-align:start;line-height:125%;writing-mode:lr-tb;text-anchor:start;fill:#0f2651;fill-opacity:1;stroke:none;font-family:Myriad Pro;-inkscape-font-specification:Myriad Pro Italic Semi-Expanded"
         y="528.57104"
         x="38.30917"
         sodipodi:role="line"
         id="tspan3964">Indiana Jones</tspan></text>
    <text
       sodipodi:linespacing="125%"
       xml:space="preserve"
       style="font-size:51.3988533px;font-style:italic;font-variant:normal;font-weight:normal;font-stretch:semi-expanded;text-align:start;line-height:125%;writing-mode:lr-tb;text-anchor:start;fill:#669e85;fill-opacity:1;stroke:none;font-family:Myriad Pro;-inkscape-font-specification:Myriad Pro Italic Semi-Expanded"
       x="246.32336"
       y="584.93146"
       id="text3968"
       transform="scale(0.96536055,1.0358824)"><tspan
         id="tspan3970"
         sodipodi:role="line"
         x="246.32336"
         y="584.93146"
         style="font-size:51.3988533px;font-style:italic;font-variant:normal;font-weight:normal;font-stretch:semi-expanded;text-align:start;line-height:125%;writing-mode:lr-tb;text-anchor:start;fill:#669e85;fill-opacity:1;stroke:none;font-family:Myriad Pro;-inkscape-font-specification:Myriad Pro Italic Semi-Expanded">... and the Pantomime Horse</tspan></text>
    <path
       sodipodi:nodetypes="cccccc"
       id="path3998"
       d="m 626,918.4844 c -111.95268,44.67233 -170.20809,63.8877 -346,86.1635 -108.57143,9.7143 -163.73191,1.2358 -240,-7.5096 l 0,-344.00006 586,0 0,265.34616 z"
       style="fill:#aaccee;stroke:#000000;display:none" />
    <flowRoot
       xml:space="preserve"
       style="font-size:19.70000076px;font-style:normal;font-variant:normal;font-weight:300;font-stretch:normal;text-align:justify;line-height:100%;writing-mode:lr-tb;text-anchor:start;fill:#000000;stroke:none;font-family:Myriad Pro;-inkscape-font-specification:Myriad Pro Light"
       id="flowRoot4000"><flowRegion
         id="flowRegion4002"><use
           x="0"
           y="0"
           xlink:href="#path3998"
           id="use4004"
           width="885.82678"
           height="623.62207" /></flowRegion><flowPara
         id="flowPara4658"><flowSpan
   style="font-style:italic"
   id="flowSpan4672">Two Shades of Blue <flowSpan
   style="font-style:normal"
   id="flowSpan2894">proudly</flowSpan></flowSpan> presents a rollicking tale of mystery and adventure, confused nationalities, kick­ass princesses and buried treasure.</flowPara><flowPara
         id="flowPara4660" /><flowPara
         id="flowPara4662">Licking his wounds after another botched mission, Indiana Jones returns to Morocco for a stiff drink and a quick cuddle with the girl he walked out on over a year ago. But no sooner are the lovers reunited than disaster strikes – again!</flowPara><flowPara
         id="flowPara4664" /><flowPara
         id="flowPara4666">Can Indy find the treasure and the girl and save the day before it’s too late?</flowPara><flowPara
         id="flowPara4668" /><flowPara
         id="flowPara4670">Accompanied by his man­-eating mother, devoted man­servant and horse, Indy faces the usual cast of sinisterly­-inept, country­-confused double agents, spies and greedy arch­villains, who would do anything to stop him! Join us for an hour of pun­filled fun, comic exploits, outrageous accents and music you’ll be singing along to for days after, as Indiana Jones and the Pantomime Horse defy villainy to seek the long­ lost Treasure of the Gorgons!</flowPara></flowRoot>    <flowRoot
       xml:space="preserve"
       id="flowRoot4153"
       style="fill:none;stroke:black;stroke-opacity:1;stroke-width:1px;stroke-linejoin:miter;stroke-linecap:butt;-inkscape-font-specification:Bitstream Vera Sans"><flowRegion
         id="flowRegion4155"><rect
           id="rect4157"
           width="75.714287"
           height="15.714286"
           x="687.14288"
           y="238.62207" /></flowRegion><flowPara
         id="flowPara4159" /></flowRoot>    <g
       id="g4235"
       transform="matrix(1.4934196,0,0,1.4934196,-384.24039,-338.11183)">
      <text
         sodipodi:linespacing="100%"
         id="text4131"
         y="786.36218"
         x="839.89172"
         style="font-size:12px;font-style:italic;font-variant:normal;font-weight:300;font-stretch:semi-expanded;text-align:end;line-height:100%;writing-mode:lr-tb;text-anchor:end;fill:#000000;stroke:none;font-family:Myriad Pro;-inkscape-font-specification:Myriad Pro Light Italic Semi-Expanded"
         xml:space="preserve"><tspan
           id="tspan4149"
           y="786.36218"
           x="839.89172"
           sodipodi:role="line">Cath Howdle</tspan><tspan
           id="tspan4151"
           y="798.36218"
           x="839.89172"
           sodipodi:role="line">Ben Parker</tspan></text>
      <text
         xml:space="preserve"
         style="font-size:12px;font-style:italic;font-variant:normal;font-weight:bold;font-stretch:semi-expanded;text-align:end;line-height:100%;writing-mode:lr-tb;text-anchor:end;fill:#000000;stroke:none;font-family:Myriad Pro;-inkscape-font-specification:Myriad Pro Semi-Bold Italic Semi-Expanded"
         x="793.63281"
         y="770.36218"
         id="text4205"
         sodipodi:linespacing="100%"><tspan
           y="770.36218"
           x="793.63281"
           id="tspan4211"
           sodipodi:role="line">Artistic Directors</tspan></text>
      <text
         sodipodi:linespacing="100%"
         id="text4213"
         y="672.36218"
         x="810.94019"
         style="font-size:12px;font-style:italic;font-variant:normal;font-weight:bold;font-stretch:semi-expanded;text-align:end;line-height:100%;writing-mode:lr-tb;text-anchor:end;fill:#000000;stroke:none;font-family:Myriad Pro;-inkscape-font-specification:Myriad Pro Semi-Bold Italic Semi-Expanded"
         xml:space="preserve"><tspan
           sodipodi:role="line"
           id="tspan4215"
           x="810.94019"
           y="672.36218">Executive Producers</tspan></text>
      <text
         xml:space="preserve"
         style="font-size:12px;font-style:italic;font-variant:normal;font-weight:bold;font-stretch:semi-expanded;text-align:end;line-height:100%;writing-mode:lr-tb;text-anchor:end;fill:#000000;stroke:none;font-family:Myriad Pro;-inkscape-font-specification:Myriad Pro Semi-Bold Italic Semi-Expanded"
         x="803.28754"
         y="726.36218"
         id="text4217"
         sodipodi:linespacing="100%"><tspan
           y="726.36218"
           x="803.28754"
           id="tspan4219"
           sodipodi:role="line">Press and Publicity</tspan></text>
      <text
         xml:space="preserve"
         style="font-size:12px;font-style:italic;font-variant:normal;font-weight:300;font-stretch:semi-expanded;text-align:end;line-height:100%;writing-mode:lr-tb;text-anchor:end;fill:#000000;stroke:none;font-family:Myriad Pro;-inkscape-font-specification:Myriad Pro Light Italic Semi-Expanded"
         x="839.89172"
         y="742.36218"
         id="text4221"
         sodipodi:linespacing="100%"><tspan
           sodipodi:role="line"
           x="839.89172"
           y="742.36218"
           id="tspan4225">Clemency Cooper</tspan></text>
      <text
         sodipodi:linespacing="100%"
         id="text4229"
         y="686.36218"
         x="839.89062"
         style="font-size:12px;font-style:italic;font-variant:normal;font-weight:300;font-stretch:semi-expanded;text-align:end;line-height:100%;writing-mode:lr-tb;text-anchor:end;fill:#000000;stroke:none;font-family:Myriad Pro;-inkscape-font-specification:Myriad Pro Light Italic Semi-Expanded"
         xml:space="preserve"><tspan
           id="tspan4231"
           y="686.36218"
           x="839.89062"
           sodipodi:role="line">Emilie Yerby</tspan><tspan
           id="tspan4233"
           y="698.36218"
           x="839.89062"
           sodipodi:role="line">Richard Owen</tspan></text>
    </g>
  </g>
  <g
     inkscape:groupmode="layer"
     id="layer2"
     inkscape:label="Frames" />
</svg>
