<?xml version="1.0" encoding="UTF-8" standalone="no"?>
<!-- Created with Inkscape (http://www.inkscape.org/) -->

<svg
   xmlns:dc="http://purl.org/dc/elements/1.1/"
   xmlns:cc="http://creativecommons.org/ns#"
   xmlns:rdf="http://www.w3.org/1999/02/22-rdf-syntax-ns#"
   xmlns:svg="http://www.w3.org/2000/svg"
   xmlns="http://www.w3.org/2000/svg"
   xmlns:xlink="http://www.w3.org/1999/xlink"
   xmlns:sodipodi="http://sodipodi.sourceforge.net/DTD/sodipodi-0.dtd"
   xmlns:inkscape="http://www.inkscape.org/namespaces/inkscape"
   width="885.82678"
   height="623.62207"
   id="svg2"
   version="1.1"
   inkscape:version="0.47pre4 r22446"
   sodipodi:docname="sherlock-homles-summary.svg">
  <defs
     id="defs4">
    <linearGradient
       inkscape:collect="always"
       id="linearGradient4111">
      <stop
         style="stop-color:#669e85;stop-opacity:1;"
         offset="0"
         id="stop4113" />
      <stop
         style="stop-color:#53826d;stop-opacity:1"
         offset="1"
         id="stop4115" />
    </linearGradient>
    <linearGradient
       inkscape:collect="always"
       id="linearGradient4103">
      <stop
         style="stop-color:#183b7e;stop-opacity:1"
         offset="0"
         id="stop4105" />
      <stop
         style="stop-color:#0f2651;stop-opacity:1"
         offset="1"
         id="stop4107" />
    </linearGradient>
    <inkscape:perspective
       sodipodi:type="inkscape:persp3d"
       inkscape:vp_x="0 : 526.18109 : 1"
       inkscape:vp_y="0 : 1000 : 0"
       inkscape:vp_z="744.09448 : 526.18109 : 1"
       inkscape:persp3d-origin="372.04724 : 350.78739 : 1"
       id="perspective10" />
    <inkscape:perspective
       id="perspective2901"
       inkscape:persp3d-origin="164 : 68.101318 : 1"
       inkscape:vp_z="328 : 102.15198 : 1"
       inkscape:vp_y="0 : 1000 : 0"
       inkscape:vp_x="0 : 102.15198 : 1"
       sodipodi:type="inkscape:persp3d" />
    <inkscape:perspective
       id="perspective3758"
       inkscape:persp3d-origin="0.5 : 0.33333333 : 1"
       inkscape:vp_z="1 : 0.5 : 1"
       inkscape:vp_y="0 : 1000 : 0"
       inkscape:vp_x="0 : 0.5 : 1"
       sodipodi:type="inkscape:persp3d" />
    <inkscape:perspective
       id="perspective3913"
       inkscape:persp3d-origin="0.5 : 0.33333333 : 1"
       inkscape:vp_z="1 : 0.5 : 1"
       inkscape:vp_y="0 : 1000 : 0"
       inkscape:vp_x="0 : 0.5 : 1"
       sodipodi:type="inkscape:persp3d" />
    <inkscape:perspective
       id="perspective3947"
       inkscape:persp3d-origin="0.5 : 0.33333333 : 1"
       inkscape:vp_z="1 : 0.5 : 1"
       inkscape:vp_y="0 : 1000 : 0"
       inkscape:vp_x="0 : 0.5 : 1"
       sodipodi:type="inkscape:persp3d" />
    <inkscape:perspective
       id="perspective4073"
       inkscape:persp3d-origin="0.5 : 0.33333333 : 1"
       inkscape:vp_z="1 : 0.5 : 1"
       inkscape:vp_y="0 : 1000 : 0"
       inkscape:vp_x="0 : 0.5 : 1"
       sodipodi:type="inkscape:persp3d" />
    <linearGradient
       inkscape:collect="always"
       xlink:href="#linearGradient4103"
       id="linearGradient4109"
       x1="-140"
       y1="1003.957"
       x2="900"
       y2="1012.3622"
       gradientUnits="userSpaceOnUse" />
    <linearGradient
       inkscape:collect="always"
       xlink:href="#linearGradient4111"
       id="linearGradient4117"
       x1="900"
       y1="432.36218"
       x2="-20"
       y2="432.36218"
       gradientUnits="userSpaceOnUse"
       gradientTransform="scale(-1,1)" />
    <linearGradient
       inkscape:collect="always"
       xlink:href="#linearGradient4103"
       id="linearGradient2913"
       gradientUnits="userSpaceOnUse"
       x1="-140"
       y1="1003.957"
       x2="900"
       y2="1012.3622"
       gradientTransform="translate(0,-428.74011)" />
    <linearGradient
       inkscape:collect="always"
       xlink:href="#linearGradient4111"
       id="linearGradient2916"
       gradientUnits="userSpaceOnUse"
       gradientTransform="matrix(-1,0,0,1,0,-428.74011)"
       x1="900"
       y1="432.36218"
       x2="-20"
       y2="432.36218" />
  </defs>
  <sodipodi:namedview
     id="base"
     pagecolor="#ffffff"
     bordercolor="#666666"
     borderopacity="1.0"
     inkscape:pageopacity="0.0"
     inkscape:pageshadow="2"
     inkscape:zoom="0.7"
     inkscape:cx="436.79815"
     inkscape:cy="313.45865"
     inkscape:document-units="px"
     inkscape:current-layer="layer3"
     showgrid="false"
     borderlayer="true"
     inkscape:window-width="1278"
     inkscape:window-height="774"
     inkscape:window-x="1280"
     inkscape:window-y="16"
     inkscape:window-maximized="0"
     showguides="false"
     inkscape:guide-bbox="true">
    <inkscape:grid
       type="xygrid"
       id="grid2816"
       empspacing="5"
       visible="true"
       enabled="true"
       snapvisiblegridlinesonly="true" />
    <sodipodi:guide
       orientation="1,0"
       position="280,500"
       id="guide3972" />
    <sodipodi:guide
       orientation="1,0"
       position="600,440"
       id="guide3974" />
    <sodipodi:guide
       orientation="0,1"
       position="400,200"
       id="guide3976" />
    <sodipodi:guide
       orientation="0,1"
       position="720,400"
       id="guide3978" />
  </sodipodi:namedview>
  <metadata
     id="metadata7">
    <rdf:RDF>
      <cc:Work
         rdf:about="">
        <dc:format>image/svg+xml</dc:format>
        <dc:type
           rdf:resource="http://purl.org/dc/dcmitype/StillImage" />
        <dc:title />
      </cc:Work>
    </rdf:RDF>
  </metadata>
  <g
     inkscape:groupmode="layer"
     id="layer4"
     inkscape:label="Watermark">
    <path
       transform="translate(0,-428.74011)"
       style="opacity:0.33000000000000002;fill:#669e85;fill-opacity:1"
       d="m 40,1052.3622 c 0.0881,-0.5372 0.30188,-1.8095 0.47503,-2.8273 0.17315,-1.0178 0.37152,-2.4521 0.44083,-3.1871 0.0693,-0.7351 0.16667,-1.7068 0.21636,-2.1591 0.0497,-0.4523 0.12583,-1.2851 0.16922,-1.8505 0.0434,-0.5655 0.18804,-1.7599 0.32147,-2.6543 0.13344,-0.8943 0.19276,-1.8167 0.13182,-2.0498 -0.0609,-0.2329 0.0166,-1.0742 0.17216,-1.8693 0.29795,-1.5226 0.49074,-2.9632 0.64751,-4.8386 0.052,-0.622 0.32629,-2.9993 0.60956,-5.2829 0.28325,-2.2835 0.45815,-4.3784 0.38864,-4.6554 -0.0698,-0.278 -0.0268,-0.5651 0.0959,-0.6409 0.27977,-0.1729 0.29429,-1.3468 0.0166,-1.3468 -0.32489,0 -0.24105,-0.4042 0.2002,-0.9652 0.32677,-0.4154 0.4035,-0.8222 0.39392,-2.0886 -0.006,-0.865 0.0967,-2.1635 0.22949,-2.8857 0.19276,-1.0485 0.18856,-1.3456 -0.0209,-1.4751 -0.18842,-0.1164 -0.20091,-0.2388 -0.0444,-0.4347 0.29598,-0.3705 0.70906,-3.7634 1.00157,-8.2263 0.0495,-0.7556 0.18628,-1.627 0.30393,-1.9364 0.15962,-0.4198 0.14873,-0.6029 -0.0429,-0.7213 -0.19715,-0.1219 -0.17511,-0.249 0.0948,-0.54732 0.19342,-0.21372 0.35142,-0.65888 0.35113,-0.98925 -2.1e-4,-0.33036 0.13194,-1.20211 0.29386,-1.93721 0.16191,-0.73509 0.39679,-2.12303 0.52195,-3.08431 0.12516,-0.96128 0.44872,-2.85813 0.71901,-4.21524 0.82662,-4.1502 1.13911,-5.93809 1.13894,-6.51631 -8e-5,-0.30433 0.0808,-0.60336 0.17976,-0.66452 0.099,-0.0612 0.18949,-0.32107 0.20118,-0.57761 0.0352,-0.7723 0.18461,-1.63404 0.50867,-2.93383 0.16917,-0.67855 0.55385,-2.5754 0.85486,-4.21523 0.79723,-4.34323 1.51087,-7.89309 1.9635,-9.76697 0.21853,-0.90473 0.41527,-1.96883 0.4372,-2.36465 0.0219,-0.39582 0.12755,-0.83556 0.2347,-0.97719 0.10715,-0.14165 0.31618,-0.78936 0.4645,-1.43934 0.14832,-0.65 0.36291,-1.50568 0.47687,-1.9015 0.11395,-0.39582 0.30082,-1.04353 0.41526,-1.43935 0.36384,-1.25842 0.87159,-3.16933 0.98344,-3.70118 0.0594,-0.28272 0.28814,-0.89973 0.50819,-1.37112 0.22004,-0.47138 0.45743,-1.21161 0.52753,-1.64495 0.07,-0.43336 0.29648,-1.0655 0.50309,-1.40478 0.20659,-0.33926 0.37598,-0.78451 0.3764,-0.98942 4.1e-4,-0.20492 0.22378,-0.85263 0.49634,-1.43935 0.72246,-1.55518 1.56064,-3.72936 1.56064,-4.04822 0,-0.15187 0.12157,-0.4222 0.27014,-0.60074 0.14858,-0.17854 0.53559,-1.01858 0.86003,-1.86677 0.32444,-0.84818 0.66552,-1.63006 0.75796,-1.7375 0.0924,-0.10743 0.16808,-0.40905 0.16808,-0.67028 0,-0.26121 0.18505,-0.63339 0.41124,-0.82705 0.22618,-0.19367 0.41124,-0.46507 0.41124,-0.6031 0,-0.36005 0.82817,-1.71383 1.04841,-1.71383 0.10193,0 0.18531,-0.16655 0.18531,-0.37012 0,-0.20356 0.0769,-0.45802 0.17096,-0.56545 0.094,-0.10744 0.27859,-0.57455 0.41015,-1.03802 0.20688,-0.72889 0.70325,-1.47554 1.49019,-2.24164 0.11617,-0.11309 0.36849,-0.38577 0.56071,-0.60594 0.19223,-0.22018 0.71961,-0.78331 1.17198,-1.25141 1.16166,-1.20206 2.36464,-2.925 2.36464,-3.38669 0,-0.24501 0.26901,-0.51889 0.71967,-0.73274 0.4185,-0.19859 0.71967,-0.4922 0.71967,-0.7016 0,-0.46921 0.77022,-1.44364 1.1411,-1.44364 0.15883,0 0.44106,-0.23241 0.62717,-0.51646 0.18613,-0.28406 0.56452,-0.57323 0.84088,-0.64258 0.27637,-0.0694 0.72734,-0.48233 1.00217,-0.91769 0.27483,-0.43536 0.73133,-0.94333 1.01446,-1.12884 0.2831,-0.18551 0.51475,-0.44317 0.51475,-0.57261 0,-0.27973 0.47328,-0.60029 2.24966,-1.52376 1.53683,-0.79893 3.22473,-2.14958 3.40802,-2.72708 0.07,-0.22026 0.34849,-0.45605 0.61905,-0.52394 0.27058,-0.0679 0.67451,-0.43288 0.89761,-0.81104 0.30713,-0.52052 0.59636,-0.72263 1.19073,-0.83198 0.43178,-0.0794 1.04661,-0.36238 1.36629,-0.62879 0.31968,-0.2664 0.78232,-0.48598 1.02811,-0.48793 0.24577,-0.002 0.66198,-0.23038 0.9249,-0.50763 0.26292,-0.27723 0.8181,-0.56773 1.23373,-0.64556 0.41562,-0.0778 1.00134,-0.32292 1.30159,-0.54468 0.30025,-0.22178 0.65131,-0.33808 0.78012,-0.25847 0.24328,0.15035 1.00541,-0.26874 1.63667,-0.9 0.24849,-0.24849 0.84759,-0.40979 1.87748,-0.50551 0.83189,-0.0773 1.78605,-0.27702 2.12035,-0.44379 0.73768,-0.368 1.81073,-0.39423 2.15235,-0.0526 0.19707,0.19708 0.44495,0.14446 1.16025,-0.24628 l 0.90963,-0.49691 1.04228,0.48818 c 0.74143,0.34726 1.36574,0.47966 2.16286,0.45869 0.61633,-0.0162 1.17546,0.0593 1.24253,0.16782 0.072,0.11647 0.43329,0.0424 0.88184,-0.18081 0.41794,-0.20796 1.45386,-0.59665 2.30205,-0.86375 0.84818,-0.2671 1.80371,-0.69769 2.12339,-0.95688 0.31967,-0.25919 0.75919,-0.47126 0.9767,-0.47126 0.22248,0 0.39545,-0.14138 0.39545,-0.32322 0,-0.48216 1.01546,-2.123 1.46165,-2.36178 0.21908,-0.11725 0.38895,-0.42823 0.38895,-0.71206 0,-0.36009 0.23473,-0.65924 0.82247,-1.04819 0.45238,-0.29936 0.8225,-0.62453 0.8225,-0.7226 0,-0.0981 0.19114,-0.17828 0.42475,-0.17828 0.5217,0 1.26634,-0.37531 1.48745,-0.7497 0.0904,-0.15313 0.34616,-0.27842 0.56825,-0.27842 0.70844,0 2.24883,-1.06449 2.24883,-1.55407 0,-0.13676 0.36542,-0.5788 0.81206,-0.9823 0.44663,-0.4035 0.96925,-1.03884 1.16139,-1.41187 0.19214,-0.37303 0.56011,-0.95581 0.81773,-1.29509 0.56831,-0.74844 4.21821,-7.85659 4.69842,-9.15012 0.62706,-1.68913 0.87845,-1.87731 2.91719,-2.18381 1.0052,-0.15112 2.29496,-0.27676 2.86611,-0.2792 0.95129,-0.004 1.1344,-0.0899 2.18116,-1.02292 1.38137,-1.23119 2.18102,-2.75712 3.66866,-7.00073 1.30425,-3.72048 1.64265,-5.09907 1.40762,-5.73439 -0.0983,-0.26575 -0.21968,-2.57721 -0.26973,-5.13659 -0.10952,-5.59978 -0.36529,-8.58792 -0.80843,-9.44486 -0.1812,-0.35039 -0.33239,-0.75733 -0.33599,-0.9043 -0.004,-0.14699 -0.13847,-0.44152 -0.29973,-0.65449 -0.28652,-0.37844 -0.31796,-0.37766 -1.38139,0.0345 -0.59853,0.23194 -1.34267,0.47736 -1.65367,0.54538 -0.64944,0.14206 -0.72336,0.45686 -0.20562,0.87561 0.32737,0.26477 0.31971,0.27168 -0.0849,0.0764 -0.24459,-0.11804 -0.47785,-0.314 -0.51834,-0.43547 -0.084,-0.25199 -1.91097,0.46652 -2.46812,0.97067 -0.19078,0.17262 -0.44148,0.25541 -0.55709,0.18395 -0.11562,-0.0714 -0.37591,-0.0405 -0.57842,0.0687 -0.20251,0.10921 -0.73831,0.28878 -1.19068,0.39906 -0.45237,0.11027 -1.35221,0.39417 -1.99966,0.63089 -0.64746,0.23671 -1.43396,0.4309 -1.74779,0.43153 -0.31382,6.1e-4 -0.91788,0.0976 -1.34236,0.21547 -1.22964,0.34149 -1.95721,0.42631 -4.4504,0.51879 -1.37824,0.0511 -2.46451,0.18737 -2.63733,0.33081 -0.22936,0.19035 -0.33262,0.18116 -0.47044,-0.0419 -0.15034,-0.24326 -0.25821,-0.24202 -0.72609,0.008 -0.50609,0.27085 -0.57872,0.25801 -0.91919,-0.16246 -0.31351,-0.38716 -0.50545,-0.4384 -1.26305,-0.33713 -1.15301,0.15412 -1.97593,-0.16618 -2.14363,-0.83434 -0.072,-0.28673 -0.20428,-0.52133 -0.29402,-0.52133 -0.0897,0 -0.34268,-0.34699 -0.56208,-0.77108 -0.23658,-0.45728 -0.57554,-0.7973 -0.83293,-0.83551 -0.43706,-0.0649 -0.78383,-0.69824 -0.57092,-1.04275 0.063,-0.10206 -0.0184,-0.56265 -0.18097,-1.02354 -0.22698,-0.64333 -0.24903,-1.09022 -0.0949,-1.92389 0.1104,-0.59725 0.25604,-1.52735 0.32362,-2.0669 0.0676,-0.53954 0.20347,-1.03077 0.30194,-1.09164 0.0985,-0.0609 0.17963,-0.26713 0.18032,-0.45835 6.1e-4,-0.19124 0.13949,-0.61274 0.30842,-0.93667 0.16895,-0.32393 0.30717,-1.03281 0.30717,-1.57528 0,-0.84349 0.0893,-1.06149 0.61687,-1.50538 0.33927,-0.28548 0.61685,-0.6525 0.61685,-0.81558 0,-0.16309 0.1388,-0.41172 0.30844,-0.55251 0.16963,-0.14079 0.30843,-0.37673 0.30843,-0.52431 0,-0.14757 0.20956,-0.43697 0.46568,-0.64308 0.48642,-0.39144 2.50669,-2.79698 4.00903,-4.77356 0.48199,-0.63413 1.1991,-1.44897 1.59357,-1.81075 0.39446,-0.36179 0.71721,-0.84053 0.71721,-1.06387 0,-0.42851 0.47856,-0.85842 2.15632,-1.93712 0.62452,-0.40152 1.21107,-0.99675 1.50027,-1.52248 0.32289,-0.58696 0.73058,-0.97603 1.27393,-1.21576 0.46427,-0.20484 0.84209,-0.53238 0.90176,-0.78175 0.0565,-0.23607 0.0328,-1.63209 -0.0527,-3.10228 -0.36131,-6.21263 0.071,-14.13115 0.94,-17.21736 0.27811,-0.98769 0.45361,-1.88002 0.38998,-1.98296 -0.0636,-0.10294 0.0256,-0.52519 0.1982,-0.93834 0.17261,-0.41315 0.29572,-0.86249 0.27356,-0.99854 -0.0821,-0.50434 1.24923,-4.26456 2.1069,-5.95055 0.0999,-0.19638 0.18163,-0.54337 0.18163,-0.77109 0,-0.22771 0.0988,-0.41403 0.21948,-0.41403 0.12129,0 0.16455,-0.17306 0.0967,-0.38689 -0.078,-0.24591 -0.007,-0.43163 0.1972,-0.50968 0.17599,-0.0675 0.49068,-0.51801 0.69929,-1.00106 1.28955,-2.98588 2.7823,-5.76154 4.1849,-7.7815 0.42409,-0.61076 0.77108,-1.19092 0.77108,-1.28924 0,-0.0983 0.22585,-0.35644 0.5019,-0.57357 0.27605,-0.21714 0.56494,-0.59347 0.64202,-0.83628 0.16644,-0.52442 0.3379,-0.74757 1.44242,-1.87724 1.0378,-1.06144 2.96593,-3.39863 2.96398,-3.59282 -7e-4,-0.0789 -0.24315,-0.83751 -0.53858,-1.68569 -0.77042,-2.21181 -0.87503,-4.32315 -0.29158,-5.88465 0.54454,-1.45738 1.04399,-2.29104 2.11156,-3.52453 1.04774,-1.21056 2.01912,-1.86218 3.61401,-2.42438 0.71259,-0.25118 1.59161,-0.72273 1.9534,-1.04788 0.92883,-0.83477 2.98139,-2.01391 4.22435,-2.42676 0.58029,-0.19273 1.10483,-0.43094 1.16564,-0.52934 0.18243,-0.29517 4.50107,-0.0346 5.16495,0.3116 1.04851,0.54684 2.38164,0.29231 5.27325,-1.00679 0.6535,-0.29359 1.33405,-0.53381 1.51235,-0.53381 0.17826,0 0.72213,-0.26859 1.20855,-0.59688 0.48643,-0.32828 1.10128,-0.66228 1.36635,-0.74221 0.26509,-0.0799 1.03713,-0.40599 1.71567,-0.72457 1.97475,-0.92715 4.82809,-1.55188 8.01922,-1.75579 0.90473,-0.0578 1.7375,-0.0961 1.85059,-0.0851 0.11309,0.011 0.54748,0.0473 0.9653,0.0807 0.53158,0.0425 1.05321,0.30848 1.73732,0.8859 l 0.97764,0.8252 -0.0186,1.31343 c -0.0101,0.72239 -0.0516,1.59102 -0.0923,1.93029 -0.0728,0.60699 -0.0574,0.61777 0.95414,0.67262 0.56545,0.0306 1.23552,0.16154 1.489,0.29083 0.34688,0.17694 0.59086,0.17586 0.98637,-0.004 0.69767,-0.31788 1.52048,-0.29149 2.1511,0.069 0.28272,0.16162 0.88478,0.29714 1.33789,0.30115 0.45311,0.004 1.14708,0.10308 1.54216,0.22016 0.39508,0.11708 1.07604,0.22067 1.51324,0.23018 0.43722,0.01 1.03866,0.14455 1.33654,0.30005 0.36524,0.19067 0.8642,0.24039 1.53227,0.15271 0.81938,-0.10754 1.0936,-0.0539 1.58597,0.31011 0.32741,0.24207 1.08181,0.54446 1.67643,0.67199 0.59463,0.12752 1.45395,0.39083 1.9096,0.58512 0.45563,0.19431 1.30964,0.46797 1.89777,0.60815 0.58812,0.14018 1.16985,0.37599 1.29268,0.52401 0.12286,0.14803 0.41673,0.21858 0.65306,0.15678 0.27456,-0.0718 0.49823,0.0101 0.61953,0.22685 0.12189,0.21781 0.45633,0.33921 0.93448,0.33921 0.40958,0 0.90582,0.14584 1.10279,0.32408 0.19695,0.17824 0.70589,0.35167 1.13096,0.3854 0.42508,0.0337 0.87828,0.20549 1.00713,0.3817 0.12884,0.1762 0.64017,0.48278 1.13629,0.68129 0.49614,0.19851 1.36743,0.66741 1.93621,1.042 0.5688,0.3746 1.15195,0.68109 1.29589,0.68109 0.14394,0 0.26171,0.0973 0.26171,0.21611 0,0.11886 0.31539,0.34788 0.70084,0.50894 0.38546,0.16105 0.73245,0.36452 0.77108,0.45216 0.11857,0.2689 1.37318,1.08462 1.66821,1.08462 0.15296,0 0.47376,0.26466 0.71292,0.58815 0.24249,0.32795 0.71145,0.64346 1.06012,0.71319 0.42845,0.0857 0.78194,0.37322 1.123,0.91351 0.36695,0.58129 0.73339,0.86252 1.39461,1.07033 0.49328,0.15503 0.9894,0.3638 1.10249,0.46392 0.1222,0.1082 0.046,0.12122 -0.18794,0.0321 -0.27468,-0.10464 -0.34866,-0.0773 -0.24489,0.0906 0.0818,0.13231 0.25942,0.24057 0.39478,0.24057 0.13535,0 0.36643,0.27183 0.51349,0.60407 0.15674,0.35413 0.45317,0.63064 0.71636,0.66827 0.24693,0.0353 0.48154,0.23498 0.52133,0.44372 0.10486,0.54981 0.68571,1.16264 1.10201,1.16264 0.22284,0 0.31729,0.10891 0.24889,0.28708 -0.0606,0.15791 0.0744,0.41635 0.29993,0.57433 0.22554,0.15799 0.52063,0.52986 0.65574,0.8264 0.13512,0.29653 0.40271,0.58023 0.59466,0.63042 0.19195,0.0502 0.50887,0.42815 0.70425,0.83991 0.1954,0.41175 0.44749,0.74864 0.56025,0.74864 0.11275,0 0.17837,0.11595 0.14581,0.25766 -0.0711,0.30981 0.71283,1.44524 1.55082,2.24608 0.50732,0.48482 0.78052,0.57938 1.65654,0.57329 0.57695,-0.004 1.28034,-0.13952 1.56307,-0.30114 0.6726,-0.3845 1.08446,-0.37934 2.0114,0.0252 0.48708,0.21257 1.49641,0.35612 2.78151,0.39561 1.40335,0.0431 2.16752,0.16058 2.51163,0.38604 0.32354,0.212 0.96209,0.32407 1.84655,0.32407 0.98227,0 1.58866,0.12165 2.21764,0.44492 0.83963,0.43153 1.71646,0.59204 3.25239,0.59537 0.52122,7.1e-4 0.88334,0.15237 1.21816,0.50876 0.26204,0.27893 0.69198,0.50715 0.9554,0.50715 0.26343,0 0.82424,0.18506 1.24624,0.41125 0.42202,0.22618 1.02233,0.41124 1.33404,0.41124 0.34407,0 0.66768,0.16158 0.82361,0.41124 0.16723,0.26778 0.47949,0.41124 0.89516,0.41124 0.37445,0 0.79022,0.16784 1.00576,0.40599 0.20208,0.2233 0.51894,0.45409 0.70415,0.51287 0.18519,0.0588 0.50547,0.42025 0.71175,0.80326 0.20626,0.38302 0.59618,0.81475 0.86647,0.95941 0.27028,0.14465 0.53823,0.41012 0.59539,0.58992 0.0572,0.17981 0.31637,0.55824 0.57599,0.84097 0.74504,0.81136 1.68628,3.18748 1.91411,4.83209 0.19235,1.38866 -0.64829,4.32094 -1.31175,4.57553 -0.18611,0.0714 -0.59853,0.41282 -0.91649,0.75867 -1.30841,1.42314 -1.68384,1.73935 -1.81438,1.52813 -0.12405,-0.2007 -0.73949,0.0257 -2.14298,0.78838 -0.22618,0.12291 -0.82763,0.38186 -1.33653,0.57544 -0.50891,0.19358 -1.30555,0.52694 -1.7703,0.74078 -0.46476,0.21385 -0.98066,0.38882 -1.14648,0.38882 -0.16581,0 -0.51567,0.22801 -0.77749,0.5067 -0.32569,0.34666 -0.67997,0.49904 -1.12172,0.48242 -0.64315,-0.0242 -3.09729,0.67259 -7.00721,1.98944 -1.13092,0.38088 -2.65765,0.8398 -3.39274,1.01983 -2.68782,0.65823 -4.29697,1.20186 -4.40712,1.48888 -0.21865,0.56984 0.68971,1.82715 2.27491,3.14881 2.05339,1.71199 3.99211,3.65348 5.42214,5.42987 0.622,0.77266 1.5473,1.88591 2.0562,2.4739 1.71275,1.97889 1.9496,2.27263 3.18713,3.95256 3.09218,4.19758 3.79352,5.83872 3.43072,8.02811 -0.26613,1.60609 -0.62097,2.19335 -1.63455,2.70516 -1.34922,0.68129 -4.60724,1.50138 -6.8316,1.71961 -1.54435,0.15152 -2.65363,0.40017 -3.9068,0.87574 -1.63361,0.61995 -1.76735,0.71565 -2.0099,1.43818 -0.19133,0.56993 -0.2034,0.97082 -0.0458,1.52031 0.11772,0.41045 0.34429,1.40903 0.50352,2.21906 0.15922,0.81004 0.48054,1.8473 0.71406,2.30505 0.23353,0.45774 0.42599,1.04414 0.4277,1.3031 0.002,0.25895 0.13643,0.84095 0.2994,1.29332 0.55332,1.5359 0.44219,1.91132 -0.94602,3.19594 l -1.26035,1.16632 0.57761,1.72566 c 0.95993,2.86794 0.76762,3.83362 -1.3041,6.54758 -0.39273,0.51451 -1.00254,1.52448 -1.3551,2.24438 l -0.64102,1.30891 0.51405,0.32557 c 0.93179,0.59016 2.6756,2.59021 3.17057,3.63647 1.0038,2.12188 1.19688,2.97725 1.05909,4.69174 -0.0711,0.88408 -0.32556,2.20563 -0.56555,2.93675 -0.61129,1.8621 -2.03378,3.16119 -4.80828,4.39125 -1.9766,0.87629 -2.12979,0.90994 -4.71602,1.03577 -3.09031,0.15035 -9.22027,-0.0768 -10.62657,-0.39383 -0.52931,-0.11932 -2.00977,-0.24112 -3.28993,-0.27068 -2.19104,-0.0506 -2.39662,-0.0198 -3.50512,0.52452 -1.2417,0.60975 -2.75118,2.1326 -3.39593,3.42603 -0.30693,0.61572 -0.35266,1.20537 -0.30346,3.91211 l 0.0579,3.18713 -0.67479,1.18109 c -0.66364,1.16155 -1.36425,2.1681 -4.52861,6.50622 -0.87559,1.20036 -2.11473,3.21127 -2.75361,4.46868 -1.02605,2.0193 -1.17305,2.46362 -1.2592,3.80635 l -0.0976,1.52018 1.87716,0.98975 c 1.98353,1.04583 2.24958,1.34417 2.68872,3.0151 0.25783,0.98106 0.47461,1.21027 2.26739,2.39722 0.62199,0.41179 1.36224,0.99358 1.64496,1.29281 0.28273,0.29926 0.90731,0.80688 1.38794,1.12808 0.48064,0.32118 0.87389,0.66391 0.87389,0.76162 0,0.0977 0.14322,0.17766 0.31824,0.17766 0.17504,0 0.52203,0.21627 0.77108,0.48059 0.74657,0.79234 3.29248,2.3981 3.8022,2.3981 0.26128,0 0.72491,0.12643 1.0303,0.28096 0.30537,0.1545 0.88602,0.34071 1.29029,0.41379 0.91555,0.16546 1.62959,0.8085 1.62959,1.46753 0,0.30782 0.1984,0.6313 0.51405,0.83814 0.28273,0.18524 0.51406,0.42755 0.51406,0.53843 0,0.11092 0.17292,0.44725 0.38425,0.74744 0.21134,0.30019 0.45348,0.77712 0.5381,1.05985 0.0846,0.28272 0.39746,0.72213 0.69523,0.97648 0.39445,0.33686 0.43477,0.42513 0.14855,0.32514 -0.33878,-0.11835 -0.37166,-0.0688 -0.23868,0.36006 0.0848,0.27354 0.23044,0.95998 0.32358,1.52544 0.0931,0.56546 0.5364,3.20255 0.98504,5.86019 0.44863,2.65765 0.91755,5.94938 1.04201,7.31495 0.24187,2.65335 0.71515,4.54842 1.24352,4.97903 0.25093,0.2045 0.26645,0.30152 0.0679,0.42428 -0.30621,0.18923 0.16444,1.76576 1.29432,4.33557 0.76812,1.74699 1.52846,4.015 1.53277,4.57196 0.002,0.18921 -0.27494,0.62161 -0.61422,0.96089 -0.33927,0.33928 -0.61685,0.73964 -0.61687,0.8897 -5e-5,0.51701 -2.58933,0.31197 -4.2717,-0.33829 -0.82271,-0.31799 -1.54779,-0.52622 -1.61129,-0.46273 -0.0635,0.0635 1.11856,1.93766 2.62675,4.1648 1.50821,2.22715 2.8094,4.15457 2.89155,4.28319 0.39281,0.61506 2.00967,3.46545 2.00967,3.54286 0,0.0484 0.30471,0.52651 0.67711,1.06254 1.45617,2.09587 3.74857,6.57772 5.67962,11.10416 0.68815,1.61305 1.33998,3.09352 1.44852,3.28993 0.10852,0.19639 0.67311,1.5137 1.25465,2.92734 1.51816,3.69038 1.96771,4.76023 3.06731,7.29954 0.5387,1.24403 1.03477,2.42373 1.10235,2.62163 0.0676,0.198 0.21833,0.3599 0.33496,0.3599 0.11665,0 0.21208,0.2402 0.21208,0.5337 0,0.2936 0.13147,0.7793 0.29215,1.0795 0.28955,0.5409 1.53121,3.9932 1.93421,5.3778 0.6279,2.1574 1.95586,6.4876 2.00959,6.553 0.0343,0.042 0.45362,-0.2591 0.93174,-0.6683 0.47813,-0.4093 0.98871,-0.7441 1.13464,-0.7441 0.14594,0 0.86789,-0.5938 1.60434,-1.3194 0.73648,-0.7257 1.64137,-1.4253 2.01091,-1.5547 0.39535,-0.1384 1.05272,-0.7034 1.59718,-1.3727 1.08322,-1.3315 1.1873,-1.434 3.10085,-3.0528 0.80211,-0.6785 2.21805,-1.9881 3.14657,-2.9102 0.92851,-0.9221 2.14652,-2.0247 2.70669,-2.4503 0.56018,-0.4257 1.15541,-0.9667 1.32271,-1.2023 0.16732,-0.2355 0.7225,-0.84882 1.23374,-1.36287 1.64572,-1.65482 2.61613,-2.7911 4.10338,-4.80485 0.80077,-1.08422 1.58334,-1.97131 1.73904,-1.97131 0.15572,0 0.43232,-0.22772 0.61469,-0.50606 0.60832,-0.92841 2.72034,-2.18582 3.99716,-2.37974 1.70096,-0.25834 2.70968,-0.59176 2.70968,-0.89567 0,-0.30641 1.54821,-1.65444 2.81727,-2.45295 0.64714,-0.40721 0.8937,-0.71214 0.98284,-1.21559 0.28367,-1.60236 0.55559,-3.88566 0.66003,-5.54259 0.10901,-1.72967 0.0955,-1.80209 -0.42601,-2.2854 -0.36368,-0.33707 -0.53858,-0.7117 -0.53858,-1.15365 0,-0.41803 -0.1727,-0.81813 -0.47797,-1.10733 -0.26288,-0.24907 -0.53757,-0.61477 -0.6104,-0.81268 -0.0729,-0.1979 -0.32043,-0.35983 -0.55014,-0.35983 -0.30847,0 -0.4177,-0.13444 -0.4177,-0.51406 0,-0.28272 -0.0913,-0.51404 -0.20286,-0.51404 -0.11158,0 -0.33817,-0.32386 -0.50357,-0.71968 -0.16538,-0.39582 -0.43288,-0.71967 -0.59443,-0.71967 -0.44856,0 -0.81905,-0.56375 -0.85108,-1.2951 -0.0159,-0.36206 -0.22323,-1.25974 -0.4608,-1.99483 -0.25363,-0.78479 -0.53083,-2.48244 -0.67148,-4.11242 -0.43283,-5.01594 -0.55706,-5.56618 -1.41504,-6.26666 -2.37722,-1.94092 -3.40047,-3.13457 -5.22121,-6.09064 -0.73408,-1.19181 -1.45038,-3.26954 -2.11026,-6.1209 -0.69403,-2.9991 -0.78765,-3.87669 -1.34098,-12.57054 -0.39938,-6.27531 -0.815,-8.28659 -1.91129,-9.24914 -0.91906,-0.80694 -1.2587,-1.79911 -1.08489,-3.16911 0.26426,-2.08274 0.28873,-1.98735 -0.69865,-2.72143 -2.15188,-1.59986 -6.18669,-3.37175 -9.09145,-3.9925 -2.3531,-0.50285 -3.26041,-0.50743 -3.88632,-0.0197 -1.22295,0.9531 -1.82542,1.12251 -3.04627,0.85662 -1.58159,-0.34447 -1.86891,-0.57226 -2.98952,-2.37019 -0.90514,-1.45228 -0.97328,-1.65311 -0.88218,-2.60115 0.18076,-1.88106 1.39533,-2.77154 3.03998,-2.22875 0.44953,0.14836 0.81734,0.33266 0.81734,0.40955 0,0.20793 1.57002,0.68744 1.79519,0.54828 0.10675,-0.0659 0.92623,-0.1309 1.82111,-0.14431 0.89486,-0.0134 1.92208,-0.11508 2.28272,-0.22596 0.49675,-0.15274 0.80174,-0.12607 1.25831,0.11005 0.38682,0.20002 0.86939,0.26836 1.3474,0.19079 0.44704,-0.0726 0.86227,-0.0233 1.03879,0.12319 0.22705,0.18844 0.38421,0.18776 0.68965,-0.003 0.32596,-0.20356 0.50076,-0.17309 0.99283,0.17298 0.32846,0.23102 1.0561,0.47658 1.617,0.54566 0.56089,0.0691 1.11144,0.21726 1.22345,0.32927 0.112,0.112 0.49477,0.20364 0.8506,0.20364 0.65355,0 1.83534,0.48056 2.05471,0.8355 0.0655,0.10594 0.32435,0.19261 0.57527,0.19261 0.25092,0 0.6125,0.18253 0.8035,0.40561 0.19103,0.22307 0.60484,0.4655 0.91961,0.5387 0.31474,0.0732 0.6648,0.23768 0.7779,0.36548 0.11309,0.1278 0.54425,0.48517 0.95817,0.79414 0.41389,0.30898 1.08041,0.86417 1.48116,1.23373 1.23523,1.13914 1.63385,1.39162 2.19708,1.39162 0.29875,0 0.70958,0.18386 0.91295,0.40859 0.20337,0.22472 0.68036,0.5209 1.05996,0.65817 0.42315,0.153 0.69021,0.38802 0.69021,0.60739 0,0.19677 0.0983,0.41849 0.21831,0.4927 0.4644,0.28702 0.97444,2.50942 1.10716,4.82426 0.0752,1.31195 0.66344,3.21027 1.51455,4.88793 1.00599,1.98295 2.09489,4.44193 2.09489,4.73074 0,0.11042 0.1279,0.30691 0.28419,0.43663 0.23387,0.19409 0.32299,0.007 0.50325,-1.05433 0.12047,-0.7096 0.27049,-2.025 0.33337,-2.92309 0.0703,-1.00388 0.27247,-1.9596 0.52485,-2.48098 0.2258,-0.46643 0.41054,-0.99257 0.41054,-1.1692 0,-0.17663 0.14491,-0.44138 0.32198,-0.58836 0.75067,-0.623 1.70821,-2.97073 1.57681,-3.86605 -0.0577,-0.39358 0.035,-0.84557 0.23683,-1.15357 0.18251,-0.27853 0.33184,-0.72895 0.33184,-1.00093 0,-0.27197 0.19161,-1.08487 0.42584,-1.80641 0.2342,-0.72156 0.45508,-1.66697 0.49081,-2.10089 0.0358,-0.43394 0.16798,-0.89196 0.29383,-1.01782 0.12588,-0.12589 0.22886,-0.34677 0.22886,-0.49089 0,-0.40556 2.41267,-3.1124 3.08326,-3.45915 0.96836,-0.50078 1.83098,-0.36321 3.5793,0.57078 1.73551,0.92712 1.79407,0.9914 2.19567,2.41016 0.14406,0.50892 0.31262,1.01783 0.37457,1.13092 0.062,0.11309 0.0874,0.35934 0.0566,0.54723 -0.0308,0.18791 0.02,0.38859 0.11276,0.446 0.0929,0.0574 1.4998,-0.068 3.12649,-0.27874 3.19692,-0.41414 8.1268,-0.40355 11.11777,0.0239 0.84818,0.12121 2.05107,0.25242 2.67308,0.29156 1.2929,0.0814 2.73976,0.35772 3.50893,0.67013 0.29009,0.11781 1.05068,0.2796 1.69021,0.3595 0.63954,0.0799 1.27084,0.27548 1.40288,0.43458 0.13208,0.15913 0.55818,0.44025 0.94695,0.62474 0.38877,0.18446 1.04573,0.74083 1.45993,1.23631 0.51249,0.61313 1.20224,1.10797 2.15912,1.54902 1.23175,0.56775 1.46785,0.77003 1.9045,1.63173 0.27416,0.54099 0.49845,1.12479 0.49845,1.2973 0,0.17255 0.27759,0.56102 0.61686,0.86333 0.69527,0.61949 0.78999,0.89965 0.25703,0.76028 -0.31,-0.0811 -0.36369,0.0711 -0.38764,1.09876 -0.0869,3.72932 -0.25941,9.4177 -0.28561,9.4177 -0.0168,0 -0.0615,0.41638 -0.0996,0.92529 -0.038,0.50891 -0.17025,1.80432 -0.29396,2.87869 -0.1237,1.07437 -0.2833,2.71479 -0.35467,3.64537 -0.12194,1.58971 -0.0974,1.74097 0.40659,2.50248 0.29501,0.44579 0.72498,0.87038 0.95552,0.94356 0.23054,0.0732 0.41916,0.25501 0.41916,0.40411 0,0.14907 0.13822,0.5361 0.30716,0.86003 0.77346,1.48302 0.0826,4.41067 -1.95852,8.29974 -2.42047,4.61185 -4.88162,10.58561 -5.88768,14.29065 -1.22986,4.52924 -2.63275,10.48467 -3.36637,14.29064 -0.33788,1.75291 -0.9401,4.54705 -1.33824,6.20919 -0.99271,4.14427 -1.06113,5.14531 -0.52953,7.75024 0.7412,3.63216 0.55071,5.01776 -1.12617,8.19146 -1.03107,1.9514 -1.08387,1.7865 3.96842,12.3935 1.10392,2.3176 1.31078,3.2569 0.9331,4.2367 -0.54351,1.4101 -0.56335,2.664 -0.0524,3.3152 1.05094,1.3395 2.84877,3.9197 3.18733,4.5744 0.3052,0.5901 0.34508,1.0121 0.23813,2.519 -0.16073,2.2643 -0.52426,3.016 -3.12349,6.4593 -1.22202,1.6188 -1.94398,2.7617 -1.94398,3.0776 0,0.3434 -0.15873,0.5628 -0.50155,0.6931 -0.27586,0.1049 -0.61431,0.4033 -0.75212,0.6632 -0.32136,0.606 -2.7533,4.0142 -3.34499,4.6878 -0.24836,0.2827 -1.26375,1.6012 -2.25641,2.9301 l -1.80483,2.416 -132.89125,0 -132.89126,0 0.16021,-0.9767 z M 278.29856,933.77035 c 0,-0.28273 -0.0925,-0.51405 -0.20562,-0.51405 -0.1131,0 -0.20563,0.23132 -0.20563,0.51405 0,0.28273 0.0925,0.51404 0.20563,0.51404 0.11309,0 0.20562,-0.23131 0.20562,-0.51404 z M 81.31378,915.77852 c 0,-0.11308 -0.0925,-0.20561 -0.20562,-0.20561 -0.11309,0 -0.20561,0.0925 -0.20561,0.20561 0,0.1131 0.0925,0.20562 0.20561,0.20562 0.11309,0 0.20562,-0.0925 0.20562,-0.20562 z m 31.87123,-68.88298 c 0,-0.11309 -0.0925,-0.20563 -0.20561,-0.20563 -0.1131,0 -0.20563,0.0925 -0.20563,0.20563 0,0.11309 0.0925,0.20562 0.20563,0.20562 0.11309,0 0.20561,-0.0925 0.20561,-0.20562 z m 15.1508,-40.75149 c -0.0656,-0.16402 -0.11437,-0.1153 -0.12423,0.12424 -0.009,0.21676 0.0397,0.3382 0.10799,0.26987 0.0683,-0.0683 0.0756,-0.24567 0.0162,-0.39411 z"
       id="path4079" />
  </g>
  <g
     inkscape:groupmode="layer"
     id="layer3"
     inkscape:label="Background">
    <rect
       style="fill:url(#linearGradient2916);fill-opacity:1;stroke:none"
       id="rect2820"
       width="940"
       height="40"
       x="-920"
       y="-16.377928"
       transform="scale(-1,1)" />
    <path
       style="fill:url(#linearGradient2913);fill-opacity:1;stroke:none"
       d="m -140,584.27599 c 160,-0.6539 180.64518,19.3461 320,19.3461 120,0 284.64387,-18.5194 424,-80.00002 136,-60 256,-80 416,-40 l 0,200.00002 -1160,4 0,-103.3461 z"
       id="path2919"
       sodipodi:nodetypes="cszcccc" />
    <g
       transform="matrix(0.38026888,0,0,0.38026888,666.04061,352.5834)"
       id="layer1-3"
       inkscape:label="Layer 1">
      <path
         style="fill:#337aff;fill-opacity:0.39215686;fill-rule:evenodd;stroke:none"
         d="m 415,389.15997 -58.57143,167.77364 188,0 -55.85714,-171 L 415,389.15997 z"
         id="path3271"
         sodipodi:nodetypes="ccccc" />
      <path
         sodipodi:nodetypes="ccccc"
         id="path3269"
         d="m 275,389.15997 -58.57143,167.77364 188,0 -55.85714,-171 L 275,389.15997 z"
         style="fill:#45bf89;fill-opacity:0.39215686;fill-rule:evenodd;stroke:none" />
      <path
         sodipodi:nodetypes="ccccc"
         id="path2221"
         d="m 289.32143,356.6479 c -10.05076,22.80548 -17.52807,43.8822 -26.96429,71.78571 36.52572,5.68015 59.82143,5.53571 99.64286,0 -8.98616,-29.67683 -15.64645,-50.94451 -23.92857,-71.60714 -15.89286,-3.27381 -32.92906,-2.95592 -48.75,-0.17857 z"
         style="fill:#0f2651;fill-opacity:1;fill-rule:evenodd;stroke:#000000;stroke-width:9.3178997;stroke-linecap:round;stroke-linejoin:round;stroke-miterlimit:4;stroke-opacity:1;stroke-dasharray:none" />
      <path
         sodipodi:nodetypes="ccccc"
         id="path3195"
         d="m 313.02801,353.8417 c -1.553,12.46738 -7.12019,37.18972 -9.12726,67.17514 l 57.10951,6.81853 -22.22336,-70.45814 -25.75889,-3.53553 z"
         style="fill:#669e85;fill-opacity:1;fill-rule:evenodd;stroke:none" />
      <path
         sodipodi:nodetypes="ccc"
         id="path3199"
         d="m 361.76787,427.83537 c -26.32849,-6.96724 -80.51248,-9.97016 -100.0051,0.50508 33.27557,4.58573 64.86662,4.38462 100.0051,-0.50508 z"
         style="fill:#78ab94;fill-opacity:1;fill-rule:evenodd;stroke:none" />
      <path
         sodipodi:nodetypes="cc"
         id="path2223"
         d="m 360.27774,426.74216 c -33.71235,-6.34935 -63.90187,-6.60188 -88.92331,-2.77792"
         style="fill:none;stroke:#000000;stroke-width:5.59073925;stroke-linecap:round;stroke-linejoin:round;stroke-miterlimit:4;stroke-opacity:1;stroke-dasharray:none" />
      <path
         style="fill:none;stroke:#000000;stroke-width:9.3178997;stroke-linecap:round;stroke-linejoin:round;stroke-miterlimit:4;stroke-opacity:1;stroke-dasharray:none"
         d="m 289.32143,356.6479 c -10.05076,22.80548 -17.52807,43.8822 -26.96429,71.78571 36.52572,5.68015 59.82143,5.53571 99.64286,0 -8.98616,-29.67683 -15.64645,-50.94451 -23.92857,-71.60714 -15.89286,-3.27381 -32.92906,-2.95592 -48.75,-0.17857 z"
         id="path3197"
         sodipodi:nodetypes="ccccc" />
      <path
         sodipodi:nodetypes="ccccccccccccccc"
         id="rect3201"
         d="m 307.59375,421.28125 0,50.78125 c -0.70959,0.0476 -0.44478,1.5 -1.34375,1.5 l 0,69.78125 c -7.28357,1.63135 -16.83855,8.85276 -30.6875,10.3125 -0.83429,1.0081 -0.83429,2.43992 0,3.34375 l 34.40625,0 0.375,0 34.4375,0 c 0.83428,-0.90384 0.83429,-2.33564 0,-3.34375 -13.82823,-1.45757 -23.38458,-8.6728 -30.65625,-10.3125 l 0,-69.78125 c -0.91802,-0.0953 -0.5826,-1.45237 -1.4375,-1.5 l 0,-50.78125 -5.09375,0 z"
         style="fill:#000000;fill-opacity:1;stroke:none" />
      <path
         style="fill:#0f2651;fill-opacity:1;fill-rule:evenodd;stroke:#000000;stroke-width:9.3178997;stroke-linecap:round;stroke-linejoin:round;stroke-miterlimit:4;stroke-opacity:1;stroke-dasharray:none"
         d="m 429.32143,356.6479 c -10.05076,22.80548 -17.52807,43.8822 -26.96429,71.78571 36.52572,5.68015 59.82143,5.53571 99.64286,0 -8.98616,-29.67683 -15.64645,-50.94451 -23.92857,-71.60714 -15.89286,-3.27381 -32.92906,-2.95592 -48.75,-0.17857 z"
         id="path3257"
         sodipodi:nodetypes="ccccc" />
      <path
         style="fill:#669e85;fill-opacity:1;fill-rule:evenodd;stroke:none"
         d="m 453.02801,353.8417 c -1.553,12.46738 -7.12019,37.18972 -9.12726,67.17514 l 57.10951,6.81853 -22.22336,-70.45814 -25.75889,-3.53553 z"
         id="path3259"
         sodipodi:nodetypes="ccccc" />
      <path
         style="fill:#5573ab;fill-opacity:1;fill-rule:evenodd;stroke:none"
         d="m 501.76787,427.83537 c -26.32849,-6.96724 -80.51248,-9.97016 -100.0051,0.50508 33.27557,4.58573 64.86662,4.38462 100.0051,-0.50508 z"
         id="path3261"
         sodipodi:nodetypes="ccc" />
      <path
         style="fill:none;stroke:#000000;stroke-width:5.59073925;stroke-linecap:round;stroke-linejoin:round;stroke-miterlimit:4;stroke-opacity:1;stroke-dasharray:none"
         d="m 500.27774,426.74216 c -33.71235,-6.34935 -63.90187,-6.60188 -88.92331,-2.77792"
         id="path3263"
         sodipodi:nodetypes="cc" />
      <path
         sodipodi:nodetypes="ccccc"
         id="path3265"
         d="m 429.32143,356.6479 c -10.05076,22.80548 -17.52807,43.8822 -26.96429,71.78571 36.52572,5.68015 59.82143,5.53571 99.64286,0 -8.98616,-29.67683 -15.64645,-50.94451 -23.92857,-71.60714 -15.89286,-3.27381 -32.92906,-2.95592 -48.75,-0.17857 z"
         style="fill:none;stroke:#000000;stroke-width:9.3178997;stroke-linecap:round;stroke-linejoin:round;stroke-miterlimit:4;stroke-opacity:1;stroke-dasharray:none" />
      <path
         style="fill:#000000;fill-opacity:1;stroke:none"
         d="m 447.59375,421.28125 0,50.78125 c -0.70959,0.0476 -0.44478,1.5 -1.34375,1.5 l 0,69.78125 c -7.28357,1.63135 -16.83855,8.85276 -30.6875,10.3125 -0.83429,1.0081 -0.83429,2.43992 0,3.34375 l 34.40625,0 0.375,0 34.4375,0 c 0.83428,-0.90384 0.83429,-2.33564 0,-3.34375 -13.82823,-1.45757 -23.38458,-8.6728 -30.65625,-10.3125 l 0,-69.78125 c -0.91802,-0.0953 -0.5826,-1.45237 -1.4375,-1.5 l 0,-50.78125 -5.09375,0 z"
         id="path3267"
         sodipodi:nodetypes="ccccccccccccccc" />
    </g>
    <text
       xml:space="preserve"
       style="font-size:12.28966427px;font-weight:normal;text-align:end;text-anchor:end;opacity:0.6;fill:#aaccee;fill-opacity:1;stroke:none;-inkscape-font-specification:Andale Mono"
       x="874.07007"
       y="569.03638"
       id="text3765"
       transform="scale(1.0000936,0.9999064)"><tspan
         sodipodi:role="line"
         id="tspan3767"
         x="874.07007"
         y="569.03638"
         style="font-weight:normal;fill:#aaccee;fill-opacity:1;stroke:none;-inkscape-font-specification:Andale Mono" /><tspan
         sodipodi:role="line"
         x="874.07007"
         y="584.39844"
         style="font-weight:normal;fill:#aaccee;fill-opacity:1;stroke:none;-inkscape-font-specification:Andale Mono"
         id="tspan3785">e: info@twoshadesofblue.org.uk</tspan><tspan
         sodipodi:role="line"
         x="874.07007"
         y="599.76056"
         style="font-weight:normal;fill:#aaccee;fill-opacity:1;stroke:none;-inkscape-font-specification:Andale Mono"
         id="tspan3781">w: twoshadesofblue.org.uk</tspan><tspan
         sodipodi:role="line"
         x="874.07007"
         y="615.12262"
         id="tspan3771"
         style="font-weight:normal;fill:#aaccee;fill-opacity:1;stroke:none;-inkscape-font-specification:Andale Mono">t: 07975 615554</tspan></text>
  </g>
  <g
     inkscape:label="Layer 1"
     inkscape:groupmode="layer"
     id="layer1"
     transform="translate(0,-428.74011)">
    <text
       transform="scale(0.96536055,1.0358824)"
       id="text3835"
       y="522.95453"
       x="38.883587"
       style="font-size:81.18157196px;font-style:italic;font-variant:normal;font-weight:normal;font-stretch:semi-expanded;text-align:start;line-height:125%;writing-mode:lr-tb;text-anchor:start;fill:#0f2651;fill-opacity:1;stroke:none;font-family:Myriad Pro;-inkscape-font-specification:Myriad Pro Italic Semi-Expanded"
       xml:space="preserve"
       sodipodi:linespacing="125%"><tspan
         style="font-size:81.18157196px;font-style:italic;font-variant:normal;font-weight:normal;font-stretch:semi-expanded;text-align:start;line-height:125%;writing-mode:lr-tb;text-anchor:start;fill:#0f2651;fill-opacity:1;stroke:none;font-family:Myriad Pro;-inkscape-font-specification:Myriad Pro Italic Semi-Expanded"
         y="522.95453"
         x="38.883587"
         sodipodi:role="line"
         id="tspan3964">Sherlock Holmes </tspan></text>
    <text
       sodipodi:linespacing="125%"
       xml:space="preserve"
       style="font-size:41.00117493px;font-style:italic;font-variant:normal;font-weight:normal;font-stretch:semi-expanded;text-align:start;line-height:125%;writing-mode:lr-tb;text-anchor:start;fill:#669e85;fill-opacity:1;stroke:none;font-family:Myriad Pro;-inkscape-font-specification:Myriad Pro Italic Semi-Expanded"
       x="254.84956"
       y="581.27148"
       id="text3968"
       transform="scale(0.96536055,1.0358824)"><tspan
         id="tspan3970"
         sodipodi:role="line"
         x="254.84956"
         y="581.27148"
         style="font-size:41.00117493px;font-style:italic;font-variant:normal;font-weight:normal;font-stretch:semi-expanded;text-align:start;line-height:125%;writing-mode:lr-tb;text-anchor:start;fill:#669e85;fill-opacity:1;stroke:none;font-family:Myriad Pro;-inkscape-font-specification:Myriad Pro Italic Semi-Expanded">... and the Sound of the Baskervilles</tspan></text>
    <path
       sodipodi:nodetypes="cccccc"
       id="path3998"
       d="M 618,910.4844 C 506.04732,955.15673 455.79191,974.3721 280,996.64789 157.14286,1009.505 107.69666,1003.598 40,989.1383 l 0,-336.00006 578,0 0,257.34616 z"
       style="fill:#aaccee;stroke:#000000;display:none" />
    <flowRoot
       xml:space="preserve"
       style="font-size:20px;font-style:normal;font-variant:normal;font-weight:300;font-stretch:normal;text-align:justify;line-height:100%;writing-mode:lr-tb;text-anchor:start;fill:#000000;stroke:none;font-family:Myriad Pro;-inkscape-font-specification:Myriad Pro Light"
       id="flowRoot4000"><flowRegion
         id="flowRegion4002"><use
           x="0"
           y="0"
           xlink:href="#path3998"
           id="use4004"
           width="885.82678"
           height="623.62207" /></flowRegion><flowPara
         id="flowPara4119"
         style="-inkscape-font-specification:Myriad Pro Light;font-family:Myriad Pro;font-weight:300;font-style:normal;font-stretch:normal;font-variant:normal;font-size:20px;text-anchor:start;text-align:justify;writing-mode:lr;line-height:100%"><flowSpan
   style="font-style:italic"
   id="flowSpan4285">Two Shades of Blue</flowSpan> proudly present a Victorian detective murder­ mystery, with songs!  </flowPara><flowPara
         id="flowPara4121"
         style="-inkscape-font-specification:Myriad Pro Light;font-family:Myriad Pro;font-weight:300;font-style:normal;font-stretch:normal;font-variant:normal;font-size:20px;text-anchor:start;text-align:justify;writing-mode:lr;line-height:100%" /><flowPara
         id="flowPara4123"
         style="-inkscape-font-specification:Myriad Pro Light;font-family:Myriad Pro;font-weight:300;font-style:normal;font-stretch:normal;font-variant:normal;font-size:20px;text-anchor:start;text-align:justify;writing-mode:lr;line-height:100%">Holmes and Watson have solved all the crimes in Cornwall, but who knows what dreadful things might happen when detectives get rusty? It seems it is the noble duty of the Baskervilles to provide these poor detectives with more dastardly crimes to solve...   </flowPara><flowPara
         id="flowPara4125"
         style="-inkscape-font-specification:Myriad Pro Light;font-family:Myriad Pro;font-weight:300;font-style:normal;font-stretch:normal;font-variant:normal;font-size:20px;text-anchor:start;text-align:justify;writing-mode:lr;line-height:100%" /><flowPara
         id="flowPara4127"
         style="-inkscape-font-specification:Myriad Pro Light;font-family:Myriad Pro;font-weight:300;font-style:normal;font-stretch:normal;font-variant:normal;font-size:20px;text-anchor:start;text-align:justify;writing-mode:lr;line-height:100%">Somebody's got to murder someone and it's nobody's fault. The plot thickens like devious custard as the Baskerville family scheme in all directions, Watson is lured into a bog and the son and heir is sadly decapitated with a chandelier. Featuring lively songs of cunning and intrigue and a romantic proposal at sword point, this is a musical adventure into a world of logic gone mad. With even Watson in danger, will Holmes manage to save the day, helped (or possibly hindered) by incompetent singing policemen?</flowPara></flowRoot>    <flowRoot
       xml:space="preserve"
       id="flowRoot4153"
       style="fill:none;stroke:black;stroke-opacity:1;stroke-width:1px;stroke-linejoin:miter;stroke-linecap:butt;-inkscape-font-specification:Bitstream Vera Sans"><flowRegion
         id="flowRegion4155"><rect
           id="rect4157"
           width="75.714287"
           height="15.714286"
           x="687.14288"
           y="238.62207" /></flowRegion><flowPara
         id="flowPara4159" /></flowRoot>    <g
       id="g4235"
       transform="matrix(1.4934196,0,0,1.4934196,-384.24039,-338.11183)">
      <text
         sodipodi:linespacing="100%"
         id="text4131"
         y="786.36218"
         x="839.89172"
         style="font-size:12px;font-style:italic;font-variant:normal;font-weight:300;font-stretch:semi-expanded;text-align:end;line-height:100%;writing-mode:lr-tb;text-anchor:end;fill:#000000;stroke:none;font-family:Myriad Pro;-inkscape-font-specification:Myriad Pro Light Italic Semi-Expanded"
         xml:space="preserve"><tspan
           id="tspan4149"
           y="786.36218"
           x="839.89172"
           sodipodi:role="line">Cath Howdle</tspan><tspan
           id="tspan4151"
           y="798.36218"
           x="839.89172"
           sodipodi:role="line">Ben Parker</tspan></text>
      <text
         xml:space="preserve"
         style="font-size:12px;font-style:italic;font-variant:normal;font-weight:bold;font-stretch:semi-expanded;text-align:end;line-height:100%;writing-mode:lr-tb;text-anchor:end;fill:#000000;stroke:none;font-family:Myriad Pro;-inkscape-font-specification:Myriad Pro Semi-Bold Italic Semi-Expanded"
         x="793.63281"
         y="770.36218"
         id="text4205"
         sodipodi:linespacing="100%"><tspan
           y="770.36218"
           x="793.63281"
           id="tspan4211"
           sodipodi:role="line">Artistic Directors</tspan></text>
      <text
         sodipodi:linespacing="100%"
         id="text4213"
         y="672.36218"
         x="810.94019"
         style="font-size:12px;font-style:italic;font-variant:normal;font-weight:bold;font-stretch:semi-expanded;text-align:end;line-height:100%;writing-mode:lr-tb;text-anchor:end;fill:#000000;stroke:none;font-family:Myriad Pro;-inkscape-font-specification:Myriad Pro Semi-Bold Italic Semi-Expanded"
         xml:space="preserve"><tspan
           sodipodi:role="line"
           id="tspan4215"
           x="810.94019"
           y="672.36218">Executive Producers</tspan></text>
      <text
         xml:space="preserve"
         style="font-size:12px;font-style:italic;font-variant:normal;font-weight:bold;font-stretch:semi-expanded;text-align:end;line-height:100%;writing-mode:lr-tb;text-anchor:end;fill:#000000;stroke:none;font-family:Myriad Pro;-inkscape-font-specification:Myriad Pro Semi-Bold Italic Semi-Expanded"
         x="803.28754"
         y="726.36218"
         id="text4217"
         sodipodi:linespacing="100%"><tspan
           y="726.36218"
           x="803.28754"
           id="tspan4219"
           sodipodi:role="line">Press and Publicity</tspan></text>
      <text
         xml:space="preserve"
         style="font-size:12px;font-style:italic;font-variant:normal;font-weight:300;font-stretch:semi-expanded;text-align:end;line-height:100%;writing-mode:lr-tb;text-anchor:end;fill:#000000;stroke:none;font-family:Myriad Pro;-inkscape-font-specification:Myriad Pro Light Italic Semi-Expanded"
         x="839.89172"
         y="742.36218"
         id="text4221"
         sodipodi:linespacing="100%"><tspan
           sodipodi:role="line"
           x="839.89172"
           y="742.36218"
           id="tspan4225">Clemency Cooper</tspan></text>
      <text
         sodipodi:linespacing="100%"
         id="text4229"
         y="686.36218"
         x="839.89062"
         style="font-size:12px;font-style:italic;font-variant:normal;font-weight:300;font-stretch:semi-expanded;text-align:end;line-height:100%;writing-mode:lr-tb;text-anchor:end;fill:#000000;stroke:none;font-family:Myriad Pro;-inkscape-font-specification:Myriad Pro Light Italic Semi-Expanded"
         xml:space="preserve"><tspan
           id="tspan4231"
           y="686.36218"
           x="839.89062"
           sodipodi:role="line">Emilie Yerby</tspan><tspan
           id="tspan4233"
           y="698.36218"
           x="839.89062"
           sodipodi:role="line">Richard Owen</tspan></text>
    </g>
  </g>
  <g
     inkscape:groupmode="layer"
     id="layer2"
     inkscape:label="Frames" />
</svg>
